<svg width="102" height="99" viewBox="0 0 102 99" fill="none" xmlns="http://www.w3.org/2000/svg">
<path fill-rule="evenodd" clip-rule="evenodd" d="M31.0004 69.164C27.6804 67.824 25.9404 66.124 24.4104 62.844C23.1604 60.134 22.4904 57.214 21.3404 54.464C21.1604 54.054 20.5104 54.314 20.6204 54.734C21.8004 59.404 24.1104 70.814 30.9704 69.944C31.4004 69.894 31.3304 69.304 31.0004 69.164Z" fill="#646775"/>
<path fill-rule="evenodd" clip-rule="evenodd" d="M30.2004 93.494C30.2704 93.494 30.2704 93.384 30.2004 93.384C30.1304 93.384 30.1304 93.494 30.2004 93.494Z" fill="#646775"/>
<path fill-rule="evenodd" clip-rule="evenodd" d="M37.8305 91.964C35.7705 91.554 33.7605 92.674 31.7705 93.024C31.5405 93.064 31.5705 93.464 31.8105 93.444C33.8105 93.314 35.9905 93.064 37.8605 92.274C37.9805 92.224 37.9705 91.994 37.8305 91.964Z" fill="#646775"/>
<path fill-rule="evenodd" clip-rule="evenodd" d="M20.1806 40.024C20.1473 40.1173 20.1706 40.1873 20.2506 40.234C20.1406 40.264 20.0406 40.334 20.0406 40.464C20.0006 40.954 19.9606 42.004 20.7006 42.024C21.2206 42.044 21.5506 41.394 21.7406 41.004C21.9306 40.584 22.1306 39.914 21.8006 39.514C21.3306 38.944 20.4206 39.534 20.1806 40.024ZM21.1406 40.694C21.0606 40.904 20.9106 41.174 20.7406 41.314C20.7339 41.3073 20.7306 41.304 20.7306 41.304C20.6306 41.024 20.5906 40.694 20.5606 40.404C20.5539 40.324 20.5206 40.2707 20.4606 40.244C20.6939 40.1907 20.9206 40.1107 21.1406 40.004C21.2139 39.9773 21.2606 39.9673 21.2806 39.974C21.3306 40.144 21.2206 40.494 21.1406 40.694Z" fill="#646775"/>
<path fill-rule="evenodd" clip-rule="evenodd" d="M25.0005 27.754C25.4905 27.694 25.7605 27.094 25.8805 26.694C26.0005 26.324 26.1305 25.634 25.6905 25.414C25.2505 25.184 24.6505 25.624 24.3805 26.084C24.2205 26.004 23.9905 26.124 24.0305 26.354C24.1105 26.874 24.2805 27.834 25.0005 27.754ZM25.1405 26.224C25.1938 26.1773 25.2572 26.1307 25.3305 26.084C25.3238 26.224 25.3005 26.3607 25.2605 26.494C25.2005 26.694 25.0805 26.994 24.9205 27.104C24.8872 27.084 24.8605 27.0607 24.8405 27.034C24.7471 26.9007 24.6771 26.7573 24.6305 26.604C24.8205 26.514 24.9805 26.364 25.1405 26.224Z" fill="#646775"/>
<path fill-rule="evenodd" clip-rule="evenodd" d="M19.1704 26.134C19.7104 26.184 20.1504 25.654 20.3904 25.224C20.6304 24.794 20.8204 24.204 20.4904 23.774C20.0504 23.204 18.9304 23.724 18.6504 24.194C18.6371 24.2073 18.6304 24.224 18.6304 24.244C18.5104 24.244 18.3804 24.314 18.3804 24.454C18.3804 25.024 18.3904 26.054 19.1704 26.134ZM20.0204 24.224C19.9904 24.204 20.0204 24.304 20.0104 24.424C19.9904 24.574 19.9104 24.744 19.8404 24.874C19.7104 25.114 19.4904 25.454 19.2204 25.504C19.0404 25.534 18.8804 24.714 18.8404 24.454C19.1704 24.424 19.7904 24.074 20.0204 24.224Z" fill="#646775"/>
<path fill-rule="evenodd" clip-rule="evenodd" d="M23.3204 20.644C23.5304 19.854 22.3304 19.434 21.8904 20.044C21.8404 20.124 21.8904 20.214 21.9704 20.244C22.1104 20.314 22.7304 20.294 22.7404 20.494C22.7504 20.864 21.8404 20.304 21.7704 20.254C21.5504 20.084 21.2404 20.444 21.4604 20.624C21.9204 21.034 23.0604 21.614 23.3204 20.644Z" fill="#646775"/>
<path fill-rule="evenodd" clip-rule="evenodd" d="M31.7503 52.084C32.7103 50.294 32.9403 48.164 33.1403 46.174C33.1603 45.994 32.8503 45.934 32.8203 46.124C32.4703 48.094 31.7803 50.034 31.5703 52.024C31.5603 52.114 31.7003 52.164 31.7503 52.084Z" fill="#646775"/>
<path fill-rule="evenodd" clip-rule="evenodd" d="M33.7606 47.574C33.3106 49.354 32.8706 51.134 32.3806 52.914C32.3306 53.074 32.5706 53.204 32.6606 53.044C33.6106 51.424 33.8306 49.524 34.2206 47.714C34.2806 47.414 33.8406 47.274 33.7606 47.574Z" fill="#646775"/>
<path fill-rule="evenodd" clip-rule="evenodd" d="M34.8005 50.724C34.8405 50.484 34.4305 50.414 34.3805 50.644C34.1305 51.964 33.8005 53.284 33.6205 54.614C33.6005 54.704 33.7505 54.754 33.8005 54.674C34.4305 53.454 34.5705 52.054 34.8005 50.724Z" fill="#646775"/>
<path fill-rule="evenodd" clip-rule="evenodd" d="M35.4704 49.674C35.4704 49.504 35.2304 49.494 35.2204 49.664C34.9104 53.184 34.4904 56.534 33.5704 59.954C33.5304 60.074 33.7104 60.174 33.7804 60.054C35.5004 56.934 35.4904 53.134 35.4704 49.674Z" fill="#646775"/>
<path fill-rule="evenodd" clip-rule="evenodd" d="M36.2405 62.514C37.3005 60.354 37.9105 57.914 37.8505 55.504C37.8405 55.204 37.3905 55.184 37.3905 55.484C37.3805 57.904 36.4405 60.034 35.9205 62.364C35.8805 62.544 36.1505 62.704 36.2405 62.514Z" fill="#646775"/>
<path fill-rule="evenodd" clip-rule="evenodd" d="M34.9306 66.624C36.3306 65.824 36.8506 63.784 37.2206 62.344C37.3006 62.044 36.8506 61.894 36.7606 62.194C36.5306 63.014 36.2606 63.804 35.8906 64.574C35.5706 65.234 35.0906 65.774 34.7206 66.404C34.6406 66.534 34.7906 66.704 34.9306 66.624Z" fill="#646775"/>
<path fill-rule="evenodd" clip-rule="evenodd" d="M34.8804 68.074C35.9304 67.554 36.5404 66.434 36.9504 65.384C37.0704 65.064 36.5604 64.904 36.4404 65.224C36.0304 66.254 35.4004 66.974 34.6704 67.784C34.5404 67.934 34.6904 68.174 34.8804 68.074Z" fill="#646775"/>
<path fill-rule="evenodd" clip-rule="evenodd" d="M93.3704 71.224C96.7204 69.054 98.0904 65.044 99.1104 61.384C101.4 53.154 102.44 43.004 101.52 34.374C101.574 34.3473 101.627 34.3206 101.68 34.294C102 34.124 102.1 33.794 101.91 33.484C100.7 31.534 98.2204 30.844 95.9104 30.534C95.6804 29.104 93.5204 27.954 92.4304 29.174C92.2704 29.354 92.5004 29.604 92.7004 29.534C93.2804 29.324 93.7304 29.234 94.3104 29.494C94.7204 29.664 95.0404 30.024 95.1804 30.444C94.7004 30.3973 94.2404 30.3573 93.8004 30.324C93.6071 30.3106 93.4071 30.2973 93.2004 30.284C93.2604 30.014 92.8804 29.844 92.7604 30.124C92.7471 30.1706 92.7338 30.214 92.7204 30.254C90.2104 30.144 87.3304 30.314 85.1904 31.564C85.0638 31.5573 84.9571 31.6006 84.8704 31.694C84.6604 31.504 84.2604 31.494 84.1504 31.824C81.0304 40.544 80.0504 51.534 80.8204 60.694C81.1104 64.134 82.0404 67.984 84.9104 70.174C86.9704 71.744 88.0604 70.214 87.1304 73.614C85.9404 77.944 85.3504 82.484 85.2804 86.964C85.1504 86.824 84.9104 86.794 84.8104 87.024C84.7971 87.0706 84.7838 87.1173 84.7704 87.164C81.7204 86.784 78.7104 87.034 75.8504 88.244C75.4704 88.394 75.3604 88.954 75.7204 89.214C80.7404 92.854 90.6104 93.744 96.3604 91.574C96.7804 91.414 96.7904 90.894 96.5004 90.614C94.4704 88.764 91.7804 87.504 89.0404 87.074C89.4404 83.064 90.2404 79.114 90.7404 75.114C91.1604 71.804 91.1504 72.664 93.3704 71.224ZM95.1404 31.314C94.8704 31.804 94.2404 32.174 93.7604 32.014C93.4204 31.904 93.2404 31.564 93.1704 31.204C93.8371 31.204 94.4938 31.2406 95.1404 31.314ZM92.5904 31.204C92.6304 31.724 92.8704 32.214 93.3404 32.504C94.2504 33.074 95.3804 32.284 95.7804 31.454C95.7871 31.434 95.7938 31.4173 95.8004 31.404C97.7604 31.714 99.5004 32.374 100.57 33.544C100.57 33.5773 100.57 33.6106 100.57 33.644C96.2304 35.554 90.4204 34.524 86.3404 32.204C88.0204 31.634 90.3004 31.244 92.5904 31.204ZM89.8004 71.424C89.6404 76.674 88.6604 81.804 87.9904 87.004C87.6704 87.154 87.5704 87.664 87.9804 87.814C90.4604 88.734 92.8904 89.314 95.0204 90.864C89.9904 92.444 81.8804 91.604 77.3204 88.904C79.7604 88.114 82.2004 88.064 84.8204 88.254C84.9004 88.4006 85.0238 88.5273 85.1904 88.634C85.7604 88.974 86.7904 89.034 87.3204 88.584C87.4804 88.454 87.4204 88.184 87.2004 88.154C86.7304 88.074 85.7204 88.304 85.3904 87.924C85.4504 87.774 85.4604 87.594 85.3804 87.444C85.6004 87.724 86.1104 87.704 86.1304 87.264C86.3204 81.664 87.3304 76.264 88.9004 70.874C88.9804 70.594 88.8604 70.244 88.5204 70.214C80.5204 69.484 81.5104 56.874 81.8704 51.314C82.0304 48.714 82.4004 46.174 82.8404 43.644C86.1404 44.514 89.7404 44.714 93.1204 44.854C94.8604 44.924 99.0304 45.514 100.02 43.554C101.12 41.364 96.2904 40.764 94.7404 40.644C94.7871 40.5506 94.8304 40.454 94.8704 40.354C95.2004 39.424 94.7304 38.374 93.8104 38.014C93.4504 37.874 93.0704 37.914 92.7504 38.074C92.7704 37.804 92.3804 37.664 92.2304 37.944C91.8004 38.744 91.9204 39.794 92.3704 40.594C89.2904 40.614 85.8304 40.994 83.1004 42.184C83.6904 39.014 84.3604 35.854 84.9004 32.664C85.0004 32.6973 85.1071 32.6906 85.2204 32.644C85.2404 32.6306 85.2638 32.6206 85.2904 32.614C89.1604 35.594 95.8104 36.584 100.48 34.824C100.05 40.594 100.33 46.414 99.7204 52.194C99.6871 52.4606 99.6571 52.7406 99.6304 53.034C99.6304 53.034 99.6271 53.034 99.6204 53.034C98.2904 55.984 96.4604 58.464 94.3504 60.884C94.2604 60.984 94.4004 61.114 94.5004 61.044C96.8304 59.414 98.3204 56.884 99.4804 54.324C98.7504 60.504 97.0004 70.454 90.2904 70.934C90.0604 70.954 89.8104 71.184 89.8004 71.424ZM96.1204 41.854C97.0304 41.964 100.19 43.144 97.8004 43.604C93.8104 44.384 88.5404 43.784 84.3204 42.804C86.4704 42.254 88.7404 42.004 90.9004 41.824C92.6404 41.674 94.3904 41.654 96.1204 41.854ZM92.5904 39.314C92.7904 38.894 92.9604 38.454 93.5504 38.634C94.1604 38.834 94.4204 39.514 94.2604 40.104C94.2104 40.254 94.1304 40.454 94.0204 40.614C93.7271 40.6006 93.4304 40.594 93.1304 40.594C93.0771 40.514 93.0304 40.4473 92.9904 40.394C92.7804 40.084 92.6404 39.704 92.5904 39.314Z" fill="#646775"/>
<path fill-rule="evenodd" clip-rule="evenodd" d="M84.1306 59.604C83.9206 56.734 84.3006 53.874 84.1906 51.004C84.1806 50.584 83.5006 50.594 83.4506 51.004C82.9406 55.624 81.1706 66.684 87.6406 68.224C88.0506 68.324 88.1906 67.774 87.9306 67.534C85.4006 65.204 84.4006 63.074 84.1306 59.604Z" fill="#646775"/>
<path fill-rule="evenodd" clip-rule="evenodd" d="M78.9706 89.204C79.0306 89.224 79.0806 89.134 79.0106 89.104C78.9506 89.074 78.9106 89.174 78.9706 89.204Z" fill="#646775"/>
<path fill-rule="evenodd" clip-rule="evenodd" d="M80.5505 89.314C80.3205 89.274 80.2205 89.634 80.4405 89.704C82.2905 90.264 84.3405 90.774 86.2905 90.704C86.4205 90.694 86.4905 90.484 86.3705 90.404C84.6505 89.344 82.4605 89.674 80.5505 89.314Z" fill="#646775"/>
<path fill-rule="evenodd" clip-rule="evenodd" d="M88.0404 37.594C87.9804 37.6673 87.9804 37.7374 88.0404 37.804C87.9304 37.794 87.8204 37.824 87.7704 37.934C87.5704 38.364 87.1704 39.304 87.8304 39.574C88.3004 39.764 88.8204 39.294 89.1204 39.004C89.4404 38.694 89.8404 38.154 89.6804 37.684C89.4504 37.004 88.4304 37.224 88.0404 37.594ZM88.6804 38.524C88.5404 38.684 88.3104 38.884 88.1104 38.944C88.1104 38.9374 88.1104 38.934 88.1104 38.934C88.1104 38.654 88.1904 38.334 88.2604 38.074C88.2737 37.994 88.2604 37.9307 88.2204 37.884C88.4471 37.9174 88.6804 37.924 88.9204 37.904C88.9937 37.904 89.0371 37.9107 89.0504 37.924C89.0404 38.094 88.8204 38.374 88.6804 38.524Z" fill="#646775"/>
<path fill-rule="evenodd" clip-rule="evenodd" d="M96.1404 26.564C96.0404 27.064 95.8604 27.984 96.5504 28.154C97.0004 28.274 97.4504 27.814 97.7004 27.504C97.9404 27.214 98.2804 26.634 97.9604 26.284C97.6404 25.924 96.9504 26.124 96.5504 26.444C96.4404 26.324 96.1904 26.344 96.1404 26.564ZM97.1904 26.824C97.2571 26.804 97.3271 26.784 97.4004 26.764C97.3538 26.8907 97.2871 27.004 97.2004 27.104C97.0804 27.274 96.8704 27.504 96.6904 27.544C96.6704 27.5173 96.6538 27.4873 96.6404 27.454C96.6071 27.3007 96.5938 27.1473 96.6004 26.994C96.8004 26.974 97.0004 26.894 97.1904 26.824Z" fill="#646775"/>
<path fill-rule="evenodd" clip-rule="evenodd" d="M91.8303 24.724C92.3103 24.954 92.8804 24.624 93.2404 24.324C93.6104 24.014 93.9803 23.544 93.8203 23.044C93.6203 22.374 92.4404 22.474 92.0204 22.794C92.007 22.8073 91.997 22.824 91.9904 22.844C91.8804 22.794 91.7403 22.814 91.7003 22.944C91.5003 23.454 91.1603 24.394 91.8303 24.724ZM92.1103 23.104C92.4203 23.184 93.0903 23.074 93.2503 23.294C93.2303 23.264 93.2203 23.364 93.1703 23.464C93.1003 23.594 92.9803 23.714 92.8603 23.814C92.6703 23.994 92.3603 24.214 92.0903 24.174C91.9303 24.144 92.0603 23.344 92.1103 23.104Z" fill="#646775"/>
<path fill-rule="evenodd" clip-rule="evenodd" d="M97.4405 21.184C97.8905 20.534 96.9605 19.754 96.3505 20.154C96.2805 20.204 96.3005 20.304 96.3505 20.364C96.4605 20.474 97.0305 20.664 96.9605 20.844C96.8505 21.184 96.2205 20.374 96.1705 20.304C96.0305 20.074 95.6305 20.294 95.7605 20.534C96.0505 21.064 96.8805 21.964 97.4405 21.184Z" fill="#646775"/>
<path fill-rule="evenodd" clip-rule="evenodd" d="M94.3905 52.384C95.8605 51.094 96.8005 49.254 97.6405 47.524C97.7205 47.374 97.4705 47.214 97.3805 47.374C96.3905 49.024 95.1205 50.544 94.2505 52.274C94.2105 52.354 94.3205 52.444 94.3905 52.384Z" fill="#646775"/>
<path fill-rule="evenodd" clip-rule="evenodd" d="M94.8904 53.554C96.3004 52.414 97.1404 50.784 98.1004 49.284C98.2604 49.034 97.9104 48.754 97.7404 48.994C96.7204 50.454 95.7304 51.914 94.6804 53.344C94.5804 53.474 94.7504 53.674 94.8904 53.554Z" fill="#646775"/>
<path fill-rule="evenodd" clip-rule="evenodd" d="M97.2503 51.984C96.5803 53.084 95.8303 54.154 95.2203 55.304C95.1703 55.384 95.2904 55.474 95.3604 55.414C96.3404 54.534 96.9504 53.314 97.6004 52.184C97.7204 51.984 97.3703 51.784 97.2503 51.984Z" fill="#646775"/>
<path fill-rule="evenodd" clip-rule="evenodd" d="M93.5206 60.264C96.1306 58.034 97.4106 54.604 98.5706 51.474C98.6206 51.324 98.4106 51.234 98.3406 51.374C96.8706 54.444 95.3606 57.334 93.3706 60.094C93.2906 60.204 93.4206 60.344 93.5206 60.264Z" fill="#646775"/>
<path fill-rule="evenodd" clip-rule="evenodd" d="M94.9104 63.314C96.6004 61.714 97.9705 59.724 98.7405 57.534C98.8305 57.264 98.4304 57.094 98.3304 57.364C97.5004 59.544 95.9304 61.144 94.6704 63.064C94.5704 63.214 94.7604 63.454 94.9104 63.314Z" fill="#646775"/>
<path fill-rule="evenodd" clip-rule="evenodd" d="M92.3305 66.574C93.8705 66.334 95.0305 64.664 95.8505 63.494C96.0305 63.244 95.6705 62.954 95.4905 63.204C95.0005 63.854 94.4905 64.484 93.9005 65.044C93.3905 65.534 92.7705 65.864 92.2205 66.304C92.1105 66.394 92.1805 66.604 92.3305 66.574Z" fill="#646775"/>
<path fill-rule="evenodd" clip-rule="evenodd" d="M94.1704 65.824C93.4604 66.614 92.6404 67.044 91.7104 67.534C91.5404 67.624 91.6004 67.884 91.8004 67.864C92.9204 67.754 93.8504 66.954 94.5704 66.144C94.8004 65.894 94.3904 65.574 94.1704 65.824Z" fill="#646775"/>
<path fill-rule="evenodd" clip-rule="evenodd" d="M70.1005 55.214C67.9505 48.074 64.9605 41.204 62.3605 34.224C59.5305 26.644 59.4505 18.674 59.4805 10.704C60.0338 10.4373 60.4838 10.1073 60.8305 9.714C62.0405 8.284 60.6605 4.85401 58.9205 5.33401C58.7705 4.17401 58.7505 3.01401 58.7305 1.84401C58.7838 1.67067 58.8071 1.47401 58.8005 1.25401C58.6905 -0.995991 52.7305 0.40401 51.5305 0.72401C51.1805 0.81401 51.2005 1.39401 51.5905 1.38401C53.5405 1.36401 55.5205 0.674006 57.4605 1.06401C58.1905 1.22401 57.8705 1.724 57.3605 1.984C56.6705 2.334 55.7205 2.234 54.9905 2.184C53.7105 2.094 52.2305 1.844 51.0805 1.234C50.7105 1.034 50.3705 1.444 50.5205 1.734C50.4471 2.58067 50.3905 3.42735 50.3505 4.27401C50.3005 5.33401 50.2305 5.17401 49.5105 5.70401C48.5505 6.40401 48.0905 7.274 47.9405 8.434C47.6905 10.434 49.5405 11.484 51.3605 11.864C53.7605 19.204 51.3905 26.554 49.6905 33.814C47.9905 41.014 45.1705 47.884 43.9905 55.204C42.7305 63.044 42.7005 71.124 42.7805 79.044C42.8105 81.554 42.8105 84.534 43.0705 87.474C41.7805 87.404 40.4705 87.494 39.2105 87.754C38.1305 83.704 37.4705 79.574 36.5005 75.504C35.6905 72.134 36.0005 72.974 37.6405 70.764C40.1005 67.434 39.9705 63.044 39.6205 59.104C38.8405 50.274 36.1505 40.034 32.1005 31.974C32.1471 31.934 32.1905 31.8907 32.2305 31.844C32.4805 31.564 32.4505 31.204 32.1605 30.974C30.2705 29.514 27.6105 29.744 25.2505 30.294C24.5005 28.984 21.9905 28.654 21.3705 30.234C21.2805 30.474 21.6005 30.634 21.7705 30.484C22.2505 30.084 22.6605 29.824 23.3105 29.864C23.7705 29.884 24.2205 30.114 24.5105 30.474C24.0238 30.6007 23.5638 30.7273 23.1305 30.854C22.9305 30.914 22.7305 30.974 22.5305 31.034C22.4805 30.754 22.0605 30.724 22.0405 31.044C22.0405 31.0907 22.0405 31.1373 22.0405 31.184C19.5705 31.994 16.8305 33.204 15.2105 35.204C15.0838 35.244 14.9938 35.324 14.9405 35.444C14.6705 35.334 14.2805 35.474 14.2905 35.844C14.4405 45.444 17.4905 56.494 21.5905 65.114C23.1205 68.344 25.4405 71.744 29.0305 72.824C31.6105 73.604 32.1005 71.724 32.4405 75.364C32.8705 80.004 33.9405 84.644 35.5205 89.014C35.3405 88.924 35.0905 88.984 35.0805 89.244C35.0805 89.2973 35.0838 89.3473 35.0905 89.394C31.9805 90.144 29.1505 91.484 26.8205 93.694C26.5105 93.984 26.6005 94.564 27.0405 94.684C31.7805 95.984 38.6605 94.704 43.7905 92.154C44.0605 93.274 44.3805 94.344 44.8205 95.314C44.5105 95.304 44.2205 95.744 44.5005 95.994C48.0005 99.034 53.0505 98.714 57.4105 98.464C62.6905 98.154 68.9405 98.624 73.4505 95.404C73.6305 95.274 73.4505 94.954 73.2505 95.024C73.0171 95.104 72.7838 95.1807 72.5505 95.254C76.3705 82.804 73.7705 67.364 70.1005 55.214ZM60.0205 29.344C60.3738 30.924 60.8038 32.494 61.3105 34.054C58.3705 32.024 55.1705 30.534 52.4505 28.174C52.6305 27.334 52.7871 26.494 52.9205 25.654C53.6705 26.414 54.4805 27.064 55.3805 27.674C56.5705 28.484 57.8705 29.414 59.2005 29.984C59.3405 30.044 59.4405 29.844 59.3505 29.734C58.5805 28.834 57.4205 28.284 56.4105 27.684C55.1905 26.964 54.0105 26.194 52.9905 25.214C53.1305 24.3273 53.2405 23.444 53.3205 22.564C54.7905 24.024 56.4805 25.734 58.4405 26.364C58.5705 26.404 58.7105 26.224 58.6005 26.124C57.8105 25.434 56.8705 24.904 56.0305 24.284C55.0971 23.584 54.2105 22.8373 53.3705 22.044C53.4105 21.4973 53.4371 20.9507 53.4505 20.404C54.7105 21.884 56.4005 23.334 58.1905 23.834C58.3105 23.864 58.4305 23.714 58.3205 23.614C57.5905 22.944 56.6605 22.474 55.8405 21.904C54.9605 21.284 54.1672 20.5707 53.4605 19.764C53.4538 19.5307 53.4471 19.3007 53.4405 19.074C54.8905 20.654 56.8305 22.164 58.7705 22.624C58.8505 22.644 58.9205 22.584 58.9605 22.524C59.1872 24.804 59.5405 27.0773 60.0205 29.344ZM52.3805 2.55401C52.2205 2.57401 52.0805 2.68401 52.1005 2.86401C52.1605 3.71401 52.0305 5.064 52.4905 5.904C52.2771 5.824 52.0871 5.71734 51.9205 5.58401C52.0005 5.19401 51.9105 4.72401 51.9005 4.34401C51.8805 3.67067 51.8172 3.00401 51.7105 2.34401C51.9172 2.41734 52.1405 2.48735 52.3805 2.55401ZM52.2405 11.994C52.6338 12.0273 52.9938 12.034 53.3205 12.014C53.6805 11.994 53.8005 11.514 53.4305 11.374C52.9105 11.184 52.3705 11.104 51.8305 11.004C51.7305 10.884 51.5605 10.874 51.4105 10.934C51.2371 10.9007 51.0638 10.864 50.8905 10.824C48.2505 10.204 48.2205 6.77401 50.8005 6.08401C50.9005 6.05068 50.9805 5.99401 51.0405 5.91401C51.4705 6.46401 52.1705 6.814 53.0105 6.964C54.2605 7.184 56.8205 7.13401 57.6205 5.94401C57.8105 5.66401 57.5305 5.39401 57.2505 5.42401C56.7605 5.47401 56.2905 5.75401 55.8105 5.89401C55.2005 6.07401 54.5505 6.13401 53.9105 6.14401C53.7038 6.14401 53.5005 6.13401 53.3005 6.11401C53.3305 5.61401 53.1105 5.12401 53.0205 4.63401C52.9105 4.02401 52.8505 3.40401 52.7605 2.80401C52.7471 2.73068 52.7138 2.67401 52.6605 2.63401C54.4205 3.11401 56.7605 3.43401 57.9905 2.75401C57.9405 3.86401 57.9705 4.96401 58.1605 6.08401C58.2205 6.41401 58.6405 6.49401 58.8705 6.30401C59.6505 5.65401 60.3805 7.34401 60.4905 7.83401C60.8605 9.47401 58.8405 10.144 57.6305 10.324C56.3005 10.524 54.8805 10.384 53.6005 10.044C52.9005 9.864 52.2505 9.53401 51.7905 8.97401C51.8438 8.95401 51.9171 8.92401 52.0105 8.88401C52.3605 8.74401 52.1505 8.294 51.8605 8.244C51.3305 8.154 51.2305 8.074 50.8205 8.404C50.6605 8.544 50.6505 8.77401 50.7305 8.94401C51.8505 11.324 55.9305 11.934 58.7305 11.004C58.7238 11.044 58.7205 11.084 58.7205 11.124C58.0705 11.134 57.4705 11.504 56.8405 11.634C56.0205 11.804 55.1405 11.744 54.3305 11.554C53.8805 11.454 53.6605 12.114 54.1105 12.254C54.9771 12.514 55.8571 12.5973 56.7505 12.504C57.3805 12.444 58.2205 12.264 58.7005 11.794C58.5271 15.3473 58.6105 18.884 58.9505 22.404C58.9438 22.3907 58.9372 22.3807 58.9305 22.374C58.0905 21.634 57.0205 21.164 56.0805 20.564C55.1305 19.944 54.2205 19.244 53.4205 18.434C53.4071 18.254 53.3938 18.0707 53.3805 17.884C54.0705 18.524 54.7505 19.184 55.4905 19.774C56.2305 20.374 57.3705 21.204 58.3805 20.994C58.5105 20.964 58.5405 20.784 58.4305 20.714C57.5705 20.184 56.6205 19.904 55.7805 19.314C54.9305 18.714 54.1405 18.014 53.3405 17.334C53.3138 17.0273 53.2838 16.724 53.2505 16.424C54.6805 17.454 56.4905 19.014 58.2405 19.004C58.3705 18.994 58.4105 18.844 58.3105 18.764C57.5405 18.164 56.5405 17.864 55.6905 17.384C54.8305 16.904 54.0005 16.374 53.1805 15.844C53.1005 15.3173 53.0005 14.794 52.8805 14.274C53.6405 15.094 54.4605 15.824 55.4105 16.404C56.0705 16.804 57.1805 17.314 57.8905 16.814C57.9905 16.744 57.9305 16.594 57.8405 16.564C57.5805 16.464 57.3605 16.454 57.0805 16.434C56.5105 16.364 55.9505 16.074 55.4505 15.804C54.5505 15.304 53.7405 14.604 53.0305 13.864C52.9505 13.794 52.8605 13.804 52.7905 13.844C52.6438 13.2173 52.4605 12.6007 52.2405 11.994ZM49.8905 37.414C50.8905 38.254 52.3305 39.474 53.5605 39.154C53.7605 39.104 53.7905 38.844 53.6305 38.724C53.1105 38.334 52.3905 38.194 51.8205 37.874C51.2205 37.544 50.6605 37.144 50.1005 36.734C50.6671 34.9673 51.1938 33.1807 51.6805 31.374C51.6805 31.4007 51.6905 31.4273 51.7105 31.454C53.5905 33.704 56.1305 35.794 58.9205 36.784C59.1005 36.854 59.2005 36.604 59.0605 36.494C56.6205 34.744 54.0305 33.474 51.9605 31.214C51.8905 31.134 51.7905 31.154 51.7305 31.204C51.8571 30.724 51.9771 30.244 52.0905 29.764C54.1505 31.874 56.6605 33.574 59.3005 34.844C59.5205 34.954 59.7105 34.674 59.5105 34.514C57.1105 32.694 54.4505 31.344 52.2005 29.324C52.2538 29.064 52.3105 28.804 52.3705 28.544C54.9905 30.984 58.1005 33.284 61.4605 34.524C61.8338 35.6573 62.2305 36.7873 62.6505 37.914C62.6105 37.914 62.5671 37.9207 62.5205 37.934C58.3505 40.004 53.9005 39.484 49.4305 38.814C49.5838 38.3473 49.7371 37.8807 49.8905 37.414ZM46.4505 48.224C47.1905 45.534 48.1905 42.604 49.1905 39.544C51.7805 40.104 54.4405 40.364 57.0805 40.304C58.9205 40.264 61.6405 40.064 62.8605 38.464C64.3405 42.324 66.0105 46.134 67.4005 49.944C67.3005 49.8707 67.1805 49.854 67.0405 49.894C60.1205 52.564 52.8505 53.564 45.5405 52.074C45.8005 50.7807 46.1038 49.4973 46.4505 48.224ZM45.3805 52.844C52.3405 54.524 61.0505 53.954 67.3805 50.534C67.4671 50.4807 67.5238 50.4173 67.5505 50.344C67.7171 50.824 67.8871 51.3107 68.0605 51.804C67.9505 51.704 67.7805 51.664 67.6305 51.794C62.1005 56.674 51.9105 55.884 45.1505 54.164C45.2238 53.724 45.3005 53.284 45.3805 52.844ZM22.2605 32.154C22.5005 32.644 22.9105 33.034 23.4705 33.144C24.5605 33.364 25.3805 32.184 25.4605 31.224C25.4605 31.2107 25.4605 31.194 25.4605 31.174C27.4805 30.764 29.4105 30.774 30.8805 31.514C30.8938 31.5473 30.9038 31.5807 30.9105 31.614C27.3905 35.054 21.3705 36.174 16.5505 35.414C17.9805 34.244 20.0505 33.024 22.2605 32.154ZM24.7905 31.334C24.7005 31.904 24.2305 32.494 23.7105 32.514C23.3305 32.534 23.0305 32.264 22.8305 31.934C23.4838 31.7007 24.1371 31.5007 24.7905 31.334ZM28.4805 93.804C30.5705 92.144 32.9205 91.204 35.5405 90.444C35.6671 90.5573 35.8305 90.634 36.0305 90.674C36.7105 90.794 37.7405 90.474 38.0805 89.854C38.1905 89.654 38.0405 89.424 37.8105 89.464C37.3205 89.564 36.4305 90.154 35.9705 89.914C35.9705 89.734 35.9205 89.554 35.7905 89.444C36.1005 89.634 36.5905 89.434 36.4505 89.004C34.5905 83.484 33.6005 77.864 33.1605 72.064C33.1405 71.754 32.8905 71.464 32.5505 71.554C24.5105 73.764 20.8605 61.144 19.1805 55.614C18.4005 53.034 17.8205 50.424 17.3305 47.804C20.8505 47.444 24.4305 46.324 27.7705 45.224C29.4805 44.664 33.7505 43.714 34.0005 41.444C34.2705 38.914 29.3505 40.094 27.8005 40.544C27.8138 40.4373 27.8205 40.3307 27.8205 40.224C27.8005 39.194 26.9705 38.344 25.9405 38.324C25.5405 38.324 25.1805 38.504 24.9305 38.774C24.8505 38.504 24.4205 38.514 24.3805 38.844C24.2505 39.774 24.7505 40.754 25.4805 41.364C22.5005 42.504 19.2805 44.144 17.0505 46.284C16.4605 42.994 15.9705 39.684 15.3305 36.384C15.4371 36.384 15.5371 36.3373 15.6305 36.244C15.6505 36.224 15.6705 36.204 15.6905 36.184C20.5405 37.674 27.3605 36.204 31.2505 32.794C32.9505 38.564 35.3405 44.114 36.8505 49.964C36.9238 50.2307 36.9971 50.5107 37.0705 50.804C37.0705 50.804 37.0705 50.8073 37.0705 50.814C36.8505 54.164 35.9805 57.234 34.8105 60.364C34.7605 60.494 34.9405 60.564 35.0105 60.464C36.6905 58.024 37.2105 55.024 37.4005 52.104C38.9505 58.384 40.8805 68.684 34.5305 71.604C34.3105 71.704 34.1505 72.024 34.2405 72.264C36.0005 77.424 36.9205 82.764 38.1605 88.064C37.9005 88.324 38.0005 88.854 38.4405 88.854C41.1905 88.844 43.7705 88.514 46.4005 89.254C42.0905 92.624 33.9105 94.774 28.4805 93.804ZM29.5805 41.224C30.5005 40.994 34.0105 40.984 31.8605 42.304C28.2605 44.524 22.9205 45.864 18.4705 46.454C20.3505 45.124 22.4705 44.064 24.5005 43.084C26.1305 42.304 27.8305 41.654 29.5805 41.224ZM25.2305 40.034C25.2605 39.554 25.2805 39.064 25.9105 39.034C26.5705 38.994 27.0805 39.564 27.1305 40.194C27.1505 40.364 27.1405 40.584 27.0905 40.774C26.8038 40.874 26.5138 40.974 26.2205 41.074C26.1405 41.0273 26.0705 40.9807 26.0105 40.934C25.7005 40.714 25.4205 40.394 25.2305 40.034ZM71.6305 95.424C71.6171 95.4707 71.6138 95.5173 71.6205 95.564C67.4705 96.834 63.4105 97.274 58.9905 97.474C54.7205 97.674 49.6305 98.384 45.8705 95.984C45.9505 95.874 45.9905 95.714 45.9005 95.544C45.2805 94.364 44.9805 93.024 44.7805 91.644C45.6605 91.1573 46.4638 90.634 47.1905 90.074C47.1971 90.094 47.2071 90.1107 47.2205 90.124C47.9138 90.684 48.6371 91.2007 49.3905 91.674C49.9605 92.024 50.6905 92.444 51.3805 92.394C51.5605 92.384 51.6205 92.184 51.4805 92.074C50.9005 91.604 50.1105 91.384 49.4605 91.014C48.8005 90.644 48.1805 90.204 47.5805 89.764C47.7138 89.6573 47.8405 89.554 47.9605 89.454C48.3105 89.144 48.1305 88.624 47.7505 88.474C46.6638 88.0407 45.5305 87.744 44.3505 87.584C44.2971 87.0773 44.2271 86.5807 44.1405 86.094C43.3905 81.894 43.6305 77.414 43.6505 73.164C43.6905 67.034 44.0005 60.824 45.0405 54.754C51.8305 56.844 62.5205 57.174 68.0705 52.274C68.1238 52.2207 68.1571 52.1673 68.1705 52.114C72.7305 65.364 75.9305 81.974 71.6305 95.424Z" fill="#646775"/>
<path fill-rule="evenodd" clip-rule="evenodd" d="M70.4305 79.564C67.4705 84.964 57.0305 83.544 51.9505 83.114C50.7038 83.0007 49.4572 82.8573 48.2105 82.684C45.9105 82.374 46.5305 79.234 46.4805 77.564C46.4605 76.5907 46.4238 75.6107 46.3705 74.624C46.6405 76.754 46.9305 78.894 47.2805 81.074C47.3205 81.264 47.5105 81.394 47.7005 81.414C53.9805 81.944 65.9105 85.184 70.4605 78.984C70.6105 78.774 70.4305 78.544 70.2205 78.514C71.9505 73.254 69.1005 66.954 67.8305 61.834C67.8772 61.814 67.9205 61.7907 67.9605 61.764C68.2405 61.624 68.0705 61.194 67.7705 61.264C67.7238 61.2707 67.6772 61.2807 67.6305 61.294C67.5105 61.214 67.3505 61.254 67.2605 61.374C60.0905 62.954 53.8905 65.754 46.3505 63.544C45.9005 63.414 45.7005 64.064 46.1305 64.234C52.4505 66.734 61.2305 65.084 67.2805 62.104C68.0805 67.924 70.3505 73.044 69.4205 79.034C64.8305 82.624 58.1805 81.654 52.7305 81.064C51.6505 80.944 50.5738 80.8207 49.5005 80.694C47.5005 80.474 47.5905 77.894 47.2105 76.244C46.2705 72.214 46.5605 68.034 45.8605 63.964C45.7805 63.514 45.1405 63.694 45.1805 64.124C45.2072 64.3707 45.2338 64.614 45.2605 64.854C45.1805 64.4407 45.0938 64.0273 45.0005 63.614C44.9505 63.414 44.6105 63.434 44.6305 63.654C45.2105 70.014 45.9005 76.284 45.8705 82.684C45.8705 82.824 45.9605 82.994 46.1105 83.024C51.9205 84.104 67.7705 86.974 70.9905 79.824C71.1305 79.504 70.6005 79.254 70.4305 79.564Z" fill="#646775"/>
<path fill-rule="evenodd" clip-rule="evenodd" d="M65.3406 64.074C59.9706 65.374 54.1406 68.904 48.6506 65.874C48.3006 65.684 47.9906 66.164 48.3206 66.394C52.8006 69.554 61.2906 67.324 65.5006 64.494C65.7006 64.354 65.6006 64.014 65.3406 64.074Z" fill="#646775"/>
<path fill-rule="evenodd" clip-rule="evenodd" d="M62.2404 70.944C62.0804 70.094 61.4804 69.274 60.5404 69.624C59.5204 69.994 58.7804 71.354 58.4004 72.354C58.3804 72.3607 58.3604 72.3707 58.3404 72.384C57.5504 71.674 56.4304 70.754 55.3904 70.634C54.2904 70.514 53.6804 71.444 53.7204 72.474C53.7704 73.674 54.7904 74.794 55.5304 75.644C56.4104 76.664 57.4404 77.564 58.2704 78.624C58.5504 78.974 59.1504 78.554 58.9204 78.164C58.8404 78.0574 58.757 77.9507 58.6704 77.844C59.3704 76.634 60.2704 75.534 61.0204 74.354C61.6204 73.444 62.4504 72.104 62.2404 70.944ZM55.3504 74.204C55.0204 73.784 54.0204 71.774 54.8404 71.474C55.0404 72.4007 55.2604 73.3174 55.5004 74.224C55.5137 74.2974 55.5304 74.3674 55.5504 74.434C55.477 74.3607 55.4104 74.284 55.3504 74.204ZM57.0504 73.004C57.117 73.264 57.177 73.534 57.2304 73.814C57.0704 73.3674 56.9104 72.9207 56.7504 72.474C56.6304 72.124 56.0704 72.234 56.1804 72.604C56.4404 73.484 56.6504 74.374 56.8704 75.254C56.9304 75.5007 56.9837 75.7474 57.0304 75.994C56.9304 75.894 56.827 75.794 56.7204 75.694C56.6604 75.134 56.4404 74.574 56.2904 74.044C56.0504 73.1907 55.7837 72.344 55.4904 71.504C56.1904 71.704 56.7504 72.214 57.3404 72.644C57.1704 72.644 56.9904 72.774 57.0504 73.004ZM58.7204 76.264C58.3404 75.134 58.0104 73.994 57.6404 72.864C57.6404 72.8507 57.637 72.8407 57.6304 72.834C57.7904 72.9474 57.9604 73.0474 58.1404 73.134C58.1737 73.1474 58.207 73.154 58.2404 73.154C58.3004 73.574 58.3904 73.9907 58.5104 74.404C58.6404 74.814 58.7404 75.234 59.1504 75.414C59.2037 75.434 59.2604 75.434 59.3204 75.414C59.1137 75.694 58.9137 75.9774 58.7204 76.264ZM59.5004 75.154C59.5704 74.804 59.3604 74.464 59.2304 74.134C59.057 73.714 58.9104 73.284 58.7904 72.844C58.817 72.8307 58.8404 72.8107 58.8604 72.784C59.0537 72.4907 59.2437 72.1974 59.4304 71.904C59.5004 72.444 59.4604 73.084 59.7704 73.524C59.9304 73.754 60.2604 73.694 60.2904 73.404C60.3604 72.824 60.2204 72.084 60.0604 71.514C60.027 71.394 59.9604 71.3174 59.8604 71.284C60.0337 71.0374 60.2337 70.8007 60.4604 70.574C61.1937 70.4874 61.5304 70.714 61.4704 71.254C61.457 71.494 61.4137 71.724 61.3404 71.944C61.2004 72.424 60.9504 72.874 60.7104 73.314C60.3504 73.954 59.9304 74.554 59.5004 75.154Z" fill="#646775"/>
<path fill-rule="evenodd" clip-rule="evenodd" d="M68.3506 93.504C65.3006 93.594 62.0905 94.794 59.0605 95.274C56.4105 95.704 47.6906 97.524 46.2606 93.984C46.1006 93.604 45.4606 93.844 45.5806 94.234C46.5906 97.474 51.8906 96.864 54.4206 96.704C58.6006 96.444 64.7506 96.164 68.4806 94.044C68.7106 93.914 68.6506 93.494 68.3506 93.504Z" fill="#646775"/>
<path fill-rule="evenodd" clip-rule="evenodd" d="M55.7504 39.034C54.3804 38.024 52.7904 37.434 51.4804 36.314C51.2104 36.084 50.7904 36.444 51.0604 36.704C52.2804 37.874 53.9004 39.174 55.6404 39.374C55.8404 39.394 55.8804 39.134 55.7504 39.034Z" fill="#646775"/>
<path fill-rule="evenodd" clip-rule="evenodd" d="M56.6904 38.844C56.8404 38.894 56.9604 38.704 56.8504 38.584C56.1004 37.794 55.0704 37.244 54.2004 36.574C53.1404 35.7806 52.1938 34.8706 51.3604 33.844C51.1704 33.624 50.8604 33.924 51.0304 34.144C52.3904 35.974 54.4804 38.094 56.6904 38.844Z" fill="#646775"/>
<path fill-rule="evenodd" clip-rule="evenodd" d="M58.6905 38.514C58.8005 38.554 58.8605 38.394 58.7705 38.334C56.6705 36.634 54.4305 35.224 52.4705 33.334C52.2405 33.114 51.8805 33.444 52.1105 33.674C54.0105 35.544 56.1305 37.584 58.6905 38.514Z" fill="#646775"/>
<path fill-rule="evenodd" clip-rule="evenodd" d="M53.3806 27.244C53.1206 27.064 52.8706 27.464 53.1106 27.654C55.2406 29.294 57.6806 31.584 60.3506 32.194C60.5506 32.244 60.6606 32.004 60.5006 31.884C59.3706 31.044 58.0406 30.444 56.8506 29.684C55.6606 28.924 54.5106 28.084 53.3806 27.244Z" fill="#646775"/>
<path fill-rule="evenodd" clip-rule="evenodd" d="M53.4405 24.514C55.1605 26.014 57.1005 27.734 59.2405 28.574C59.4005 28.634 59.5605 28.404 59.4205 28.284C57.6505 26.764 55.4304 25.804 53.6204 24.294C53.5004 24.194 53.3205 24.404 53.4405 24.514Z" fill="#646775"/>
<path fill-rule="evenodd" clip-rule="evenodd" d="M56.3705 15.394C56.9505 15.564 57.8205 15.554 58.1805 15.014C58.2505 14.914 58.1705 14.754 58.0505 14.754C57.4505 14.764 56.9705 14.984 56.3505 14.854C55.6605 14.704 55.0905 14.274 54.6405 13.754C54.4805 13.564 54.2105 13.824 54.3605 14.014C54.8805 14.674 55.5605 15.164 56.3705 15.394Z" fill="#646775"/>
<path fill-rule="evenodd" clip-rule="evenodd" d="M58.3605 13.964C58.4505 13.884 58.4005 13.754 58.3105 13.714C57.9705 13.564 57.5705 13.654 57.2105 13.654C56.7238 13.654 56.2838 13.5107 55.8905 13.224C55.6605 13.064 55.4605 13.414 55.6605 13.574C56.3005 14.074 57.6605 14.564 58.3605 13.964Z" fill="#646775"/>
<path fill-rule="evenodd" clip-rule="evenodd" d="M52.1506 57.494C52.2906 57.414 52.2905 57.164 52.1205 57.124C51.4305 56.994 50.7105 57.104 50.0105 57.064C48.9305 57.004 47.8005 56.684 46.8305 56.214C46.5905 56.094 46.3705 56.414 46.6105 56.564C48.0405 57.524 50.5006 58.344 52.1506 57.494Z" fill="#646775"/>
<path fill-rule="evenodd" clip-rule="evenodd" d="M50.5104 58.624C50.5804 58.564 50.5704 58.414 50.4804 58.364C50.1204 58.194 49.7404 58.244 49.3404 58.214C48.6871 58.1673 48.0771 57.9807 47.5104 57.654C47.2404 57.494 47.0004 57.874 47.2504 58.044C48.0404 58.574 49.6404 59.304 50.5104 58.624Z" fill="#646775"/>
<path fill-rule="evenodd" clip-rule="evenodd" d="M50.6004 59.904C50.7204 59.864 50.7204 59.684 50.6204 59.624C50.2404 59.424 49.8204 59.404 49.4004 59.354C48.7737 59.274 48.1637 59.124 47.5704 58.904C47.3504 58.814 47.1704 59.184 47.3904 59.294C48.2604 59.704 49.6504 60.314 50.6004 59.904Z" fill="#646775"/>
<path fill-rule="evenodd" clip-rule="evenodd" d="M50.4205 93.964C50.5505 93.954 50.6805 93.784 50.5505 93.674C50.1005 93.284 49.5205 93.104 49.0005 92.824C48.2905 92.434 47.6205 91.974 47.0905 91.364C46.9105 91.164 46.6305 91.434 46.7905 91.644C47.5405 92.674 49.0405 94.044 50.4205 93.964Z" fill="#646775"/>
<path fill-rule="evenodd" clip-rule="evenodd" d="M52.7904 90.694C51.6504 89.794 50.3704 89.084 49.2204 88.184C47.9304 87.164 46.7804 85.954 45.7804 84.644C45.5704 84.374 45.2005 84.734 45.4005 85.004C47.1505 87.414 49.7205 90.064 52.6405 91.004C52.8405 91.074 52.9404 90.814 52.7904 90.694Z" fill="#646775"/>
<path fill-rule="evenodd" clip-rule="evenodd" d="M50.6706 87.364C50.4806 87.124 50.1506 87.444 50.3306 87.684C51.3906 89.164 53.4406 90.944 55.3806 90.944C55.5606 90.944 55.6306 90.724 55.4806 90.614C54.7706 90.104 53.8506 89.864 53.0706 89.434C52.1306 88.9073 51.3306 88.2173 50.6706 87.364Z" fill="#646775"/>
<path fill-rule="evenodd" clip-rule="evenodd" d="M57.1304 89.954C56.1204 89.354 55.0204 88.914 53.9904 88.364C53.7204 88.214 53.4704 88.604 53.7304 88.754C54.7404 89.324 55.8204 90.054 56.9604 90.304C57.1704 90.344 57.3304 90.074 57.1304 89.954Z" fill="#646775"/>
<path fill-rule="evenodd" clip-rule="evenodd" d="M73.7007 34.424C73.0307 34.394 72.9907 35.434 73.6607 35.464C74.3407 35.494 74.3807 34.444 73.7007 34.424Z" fill="#646775"/>
<path fill-rule="evenodd" clip-rule="evenodd" d="M74.3006 37.484C73.3806 37.444 73.3306 38.864 74.2406 38.904C75.1606 38.934 75.2206 37.514 74.3006 37.484Z" fill="#646775"/>
<path fill-rule="evenodd" clip-rule="evenodd" d="M76.9006 35.124C75.5906 35.074 75.5106 37.114 76.8206 37.164C78.1306 37.214 78.2106 35.174 76.9006 35.124Z" fill="#646775"/>
<path fill-rule="evenodd" clip-rule="evenodd" d="M78.5206 30.504C77.1706 30.454 77.0906 32.544 78.4306 32.594C79.7806 32.644 79.8606 30.564 78.5206 30.504Z" fill="#646775"/>
<path fill-rule="evenodd" clip-rule="evenodd" d="M75.0606 27.244C74.3106 27.214 74.2606 28.384 75.0206 28.414C75.7706 28.444 75.8206 27.274 75.0606 27.244Z" fill="#646775"/>
<path fill-rule="evenodd" clip-rule="evenodd" d="M71.4906 26.974C70.5706 26.934 70.5106 28.374 71.4406 28.404C72.3606 28.444 72.4206 27.014 71.4906 26.974Z" fill="#646775"/>
<path fill-rule="evenodd" clip-rule="evenodd" d="M69.4006 16.554C68.0906 16.504 68.0006 18.544 69.3206 18.594C70.6306 18.644 70.7106 16.604 69.4006 16.554Z" fill="#646775"/>
<path fill-rule="evenodd" clip-rule="evenodd" d="M73.3705 15.694C72.6005 15.664 72.5505 16.874 73.3305 16.904C74.1105 16.934 74.1505 15.724 73.3705 15.694Z" fill="#646775"/>
<path fill-rule="evenodd" clip-rule="evenodd" d="M83.0105 25.634C82.0805 25.594 82.0205 27.044 82.9505 27.084C83.8905 27.114 83.9405 25.674 83.0105 25.634Z" fill="#646775"/>
<path fill-rule="evenodd" clip-rule="evenodd" d="M40.2106 29.964C39.1906 29.914 39.1306 31.494 40.1406 31.534C41.1606 31.574 41.2206 30.004 40.2106 29.964Z" fill="#646775"/>
<path fill-rule="evenodd" clip-rule="evenodd" d="M38.9307 35.104C38.1507 35.074 38.1007 36.284 38.8807 36.314C39.6607 36.344 39.7007 35.134 38.9307 35.104Z" fill="#646775"/>
<path fill-rule="evenodd" clip-rule="evenodd" d="M35.5004 31.254C34.4104 31.214 34.1204 32.494 34.6904 33.114C33.7004 33.434 33.7504 35.144 34.9804 35.194C36.0404 35.234 36.3304 33.984 35.7804 33.384C36.8104 33.064 36.7704 31.304 35.5004 31.254Z" fill="#646775"/>
<path fill-rule="evenodd" clip-rule="evenodd" d="M36.7405 27.054C35.3905 27.004 35.3105 29.084 36.6505 29.144C38.0005 29.194 38.0805 27.104 36.7405 27.054Z" fill="#646775"/>
<path fill-rule="evenodd" clip-rule="evenodd" d="M37.8706 25.544C37.2906 25.514 37.2506 26.424 37.8406 26.444C38.4206 26.474 38.4606 25.564 37.8706 25.544Z" fill="#646775"/>
<path fill-rule="evenodd" clip-rule="evenodd" d="M31.2506 20.804C29.9806 20.754 29.9006 22.724 31.1806 22.774C32.4506 22.824 32.5306 20.854 31.2506 20.804Z" fill="#646775"/>
<path fill-rule="evenodd" clip-rule="evenodd" d="M28.9105 25.604C28.8605 25.594 28.8605 25.674 28.9105 25.674C28.9605 25.684 28.9705 25.604 28.9105 25.604Z" fill="#646775"/>
<path fill-rule="evenodd" clip-rule="evenodd" d="M29.2706 16.704C28.8206 16.694 28.7906 17.384 29.2406 17.404C29.6906 17.414 29.7106 16.724 29.2706 16.704Z" fill="#646775"/>
<path fill-rule="evenodd" clip-rule="evenodd" d="M27.4104 9.39403C26.8704 9.37403 26.8304 10.214 27.3704 10.234C27.9204 10.254 27.9504 9.41403 27.4104 9.39403Z" fill="#646775"/>
<path fill-rule="evenodd" clip-rule="evenodd" d="M27.8205 16.994C27.3505 16.974 27.3205 17.704 27.7905 17.724C28.2605 17.744 28.2905 17.014 27.8205 16.994Z" fill="#646775"/>
<path fill-rule="evenodd" clip-rule="evenodd" d="M25.8905 20.544C25.0205 20.514 24.9704 21.854 25.8404 21.894C26.7004 21.924 26.7605 20.584 25.8905 20.544Z" fill="#646775"/>
<path fill-rule="evenodd" clip-rule="evenodd" d="M28.4206 20.104C27.7706 20.074 27.7306 21.084 28.3806 21.104C29.0206 21.134 29.0606 20.124 28.4206 20.104Z" fill="#646775"/>
<path fill-rule="evenodd" clip-rule="evenodd" d="M33.9705 15.444C33.0405 15.404 32.9805 16.854 33.9205 16.894C34.8505 16.924 34.9105 15.484 33.9705 15.444Z" fill="#646775"/>
<path fill-rule="evenodd" clip-rule="evenodd" d="M35.8605 12.974C35.8105 12.974 35.8105 13.054 35.8605 13.054C35.9105 13.054 35.9205 12.984 35.8605 12.974Z" fill="#646775"/>
<path fill-rule="evenodd" clip-rule="evenodd" d="M86.4206 20.924C85.2506 20.874 85.1706 22.704 86.3506 22.744C87.5306 22.794 87.6006 20.964 86.4206 20.924Z" fill="#646775"/>
<path fill-rule="evenodd" clip-rule="evenodd" d="M90.2305 24.154C90.1705 24.154 90.1105 24.1574 90.0505 24.164C89.9038 24.0774 89.7272 24.0273 89.5205 24.014C89.2605 24.014 89.2705 24.024 89.0205 23.924C87.7805 23.464 87.0605 25.234 88.0705 25.944C88.4805 26.234 88.9505 26.314 89.4305 26.344C89.6372 26.3574 89.8171 26.324 89.9705 26.244C90.0305 26.2507 90.0905 26.2573 90.1505 26.264C91.5105 26.324 91.6005 24.204 90.2305 24.154Z" fill="#646775"/>
<path fill-rule="evenodd" clip-rule="evenodd" d="M90.0206 20.614C88.7206 20.564 88.6406 22.574 89.9406 22.624C91.2306 22.674 91.3106 20.664 90.0206 20.614Z" fill="#646775"/>
<path fill-rule="evenodd" clip-rule="evenodd" d="M91.9106 18.034C90.8806 17.984 90.8206 19.584 91.8506 19.624C92.8806 19.664 92.9406 18.074 91.9106 18.034Z" fill="#646775"/>
<path fill-rule="evenodd" clip-rule="evenodd" d="M88.3107 9.58403C87.6607 9.55403 87.6207 10.564 88.2707 10.594C88.9107 10.614 88.9507 9.61403 88.3107 9.58403Z" fill="#646775"/>
<path fill-rule="evenodd" clip-rule="evenodd" d="M83.5006 13.254C82.2906 13.214 82.2206 15.084 83.4306 15.134C84.6406 15.184 84.7106 13.304 83.5006 13.254Z" fill="#646775"/>
<path fill-rule="evenodd" clip-rule="evenodd" d="M7.57067 39.904C6.72067 39.864 6.67067 41.174 7.51067 41.204C8.36067 41.244 8.41067 39.934 7.57067 39.904Z" fill="#646775"/>
<path fill-rule="evenodd" clip-rule="evenodd" d="M0.670554 42.124C-0.189446 42.084 -0.239464 43.414 0.620536 43.454C1.48054 43.484 1.53055 42.154 0.670554 42.124Z" fill="#646775"/>
<path fill-rule="evenodd" clip-rule="evenodd" d="M6.4905 30.844C5.1205 30.794 5.04049 32.924 6.41049 32.974C7.78049 33.024 7.8605 30.904 6.4905 30.844Z" fill="#646775"/>
<path fill-rule="evenodd" clip-rule="evenodd" d="M10.8906 46.414C9.49056 46.354 9.41056 48.514 10.8006 48.574C12.2006 48.624 12.2806 46.464 10.8906 46.414Z" fill="#646775"/>
</svg>
