<svg width="117" height="117" viewBox="0 0 117 117" fill="none" xmlns="http://www.w3.org/2000/svg">
<path fill-rule="evenodd" clip-rule="evenodd" d="M46.6319 70.7805C46.7519 72.1405 47.572 73.2805 49.172 73.1805C49.502 73.1605 49.702 72.7505 49.562 72.4405C49.482 72.2538 49.4053 72.0671 49.3319 71.8805C51.7519 72.1805 55.742 70.7105 54.492 67.6005C53.592 65.3605 51.7819 65.5505 50.0919 66.6105C49.5919 66.6038 49.1153 66.7005 48.6619 66.9005C47.3419 67.5105 46.652 68.9805 46.622 70.3405C46.5486 70.5138 46.5519 70.6605 46.6319 70.7805ZM53.3419 67.4505C54.2819 68.5205 53.982 69.3205 53.192 69.8905C53.292 69.4305 53.252 68.9205 53.002 68.3605C52.692 67.6605 52.1219 67.1805 51.4719 66.8905C52.1519 66.7305 52.8119 66.8405 53.3419 67.4505ZM50.0719 67.5805C50.6119 67.6105 51.1419 67.8105 51.5819 68.1205C52.0019 68.4105 52.3619 68.9505 52.4119 69.5205C52.4319 69.9205 52.2019 70.2405 51.9019 70.5005C50.7319 70.8705 49.382 70.9605 48.752 70.8005C48.402 70.7105 48.1219 71.1405 48.2819 71.4805C48.3686 71.6805 48.442 71.8871 48.502 72.1005C47.822 71.8305 47.5119 71.1605 47.5119 70.4105C48.0619 69.4905 49.0319 68.3205 50.0719 67.5805Z" fill="#646775"/>
<path fill-rule="evenodd" clip-rule="evenodd" d="M43.632 36.8205C44.152 35.9905 44.2021 34.8905 43.9921 33.9805C43.5921 32.2805 42.1321 31.6605 40.8721 32.6405C40.7721 32.4405 40.652 32.2472 40.512 32.0605C38.622 29.7105 35.472 29.8105 32.882 30.9705C32.4887 31.1505 32.1121 31.3672 31.7521 31.6205C31.7221 31.4805 31.6421 31.3705 31.5021 31.3505C31.4021 31.3372 31.302 31.3305 31.202 31.3305C30.072 30.0105 33.0321 28.3105 34.0021 27.8805C35.5321 27.2005 37.3021 26.9905 37.5521 29.1305C37.5921 29.5105 38.1721 29.4805 38.2321 29.1005C39.1121 23.5605 29.162 27.9605 30.222 31.2905C27.592 31.4305 25.052 33.1805 23.582 35.7605C21.722 39.0205 24.192 40.9505 26.842 41.2305C27.022 41.2505 27.152 41.1105 27.212 40.9605C27.432 41.4705 27.832 41.8605 28.462 42.0405C28.3887 42.0872 28.3354 42.1672 28.3021 42.2805C27.6021 44.8705 26.842 49.5405 29.952 50.2005C31.682 50.5805 33.2321 48.9705 33.8721 47.1605C34.3621 48.0805 35.1721 48.6105 36.3721 47.8805C38.1221 46.8105 39.422 44.0405 38.392 42.0605C38.352 41.9872 38.3021 41.9438 38.2421 41.9305C38.8921 41.3005 39.482 40.6505 39.962 40.0305C40.412 39.4605 40.772 38.7605 41.032 38.0005C40.992 38.1805 41.0321 38.3805 41.2321 38.4105C42.1721 38.5205 43.112 37.6805 43.632 36.8205ZM27.4921 37.4205C27.0521 38.5805 26.882 39.6905 27.082 40.5505C27.0687 40.5372 27.0487 40.5238 27.022 40.5105C24.142 40.0705 22.8321 38.0405 24.9121 35.1905C25.7221 34.0905 26.8421 33.2805 27.9821 32.7105C28.5521 32.4305 30.042 32.1705 30.652 32.0205C30.732 32.1072 30.8187 32.1905 30.9121 32.2705C29.4021 33.6005 28.2321 35.4705 27.4921 37.4205ZM40.132 38.0905C39.522 39.6105 32.7721 46.3005 31.8021 43.3205C31.1621 41.3605 32.992 39.5105 34.882 38.5905C34.6887 38.8638 34.5454 39.2272 34.452 39.6805C34.402 39.9205 34.5021 40.2005 34.7321 40.2405C34.9721 40.2805 35.6621 40.2405 36.4121 40.1105C36.3721 40.1505 36.3321 40.1872 36.2921 40.2205C35.9621 40.5205 36.3621 40.9605 36.6821 40.8005C37.3321 40.4705 37.702 40.0905 37.882 39.7205C38.842 39.3405 39.482 38.7605 38.842 37.9205C38.5554 37.5605 38.2321 37.3072 37.8721 37.1605C37.8854 37.1138 37.8887 37.0638 37.882 37.0105C37.072 33.5605 33.382 34.0005 31.202 35.9205C30.232 36.7805 29.252 38.0305 29.132 39.4305C29.012 40.8805 29.8521 41.7705 30.9321 42.2705C30.7721 43.6405 31.3521 44.8905 32.8521 44.8405C33.0187 44.8272 33.1854 44.8038 33.3521 44.7705C33.3121 44.8438 33.2921 44.9305 33.2921 45.0305C33.2987 45.0705 33.3054 45.1105 33.3121 45.1505H33.3021C33.6621 47.4505 30.5721 50.9605 28.9321 48.3905C28.0421 46.9905 28.612 44.0405 28.952 42.4505C28.972 42.3105 28.9454 42.2005 28.8721 42.1205C29.0621 42.1505 29.242 42.1905 29.462 42.1905C29.922 42.1905 29.922 41.4305 29.472 41.4005C24.962 41.0805 30.502 33.5205 32.342 32.3005C36.422 29.5805 42.572 32.0105 40.132 38.0905ZM36.972 46.1905C35.622 48.0605 34.282 46.9305 34.152 44.9905C34.1454 44.9438 34.142 44.9005 34.142 44.8605C34.122 44.7672 34.0787 44.6938 34.012 44.6405C35.352 44.2505 36.7021 43.3405 37.8721 42.2705C37.8421 43.7505 37.892 44.9205 36.972 46.1905ZM31.5621 40.4605C31.3687 40.7738 31.2187 41.1038 31.1121 41.4505C29.2321 40.3105 29.982 38.1405 31.592 36.6505C32.462 35.8505 33.5721 35.3305 34.6621 35.2805C35.8221 35.2205 36.6221 36.0305 37.2421 36.9805C35.2321 36.7105 32.6221 38.8005 31.5621 40.4605ZM37.0021 39.0705C36.2321 39.4305 35.292 39.6905 35.332 39.4605C35.512 38.4505 36.9221 38.3805 37.0021 39.0705ZM41.1721 37.7505C41.1254 37.7905 41.092 37.8405 41.072 37.9005C41.582 36.3805 41.672 34.6605 41.152 33.2705C42.122 32.5205 42.9721 33.2205 43.2321 34.4005C43.3621 35.0005 43.2721 35.6605 42.9921 36.2305C42.5821 37.0905 41.8021 37.2105 41.1721 37.7505Z" fill="#646775"/>
<path fill-rule="evenodd" clip-rule="evenodd" d="M64.7521 61.6105C65.6621 62.1705 66.9221 61.9805 67.8421 61.1405C70.5021 58.7305 68.912 53.0805 65.392 53.9905C64.822 54.1405 64.342 54.4805 63.952 54.9205C63.792 54.7605 63.4321 54.8005 63.3721 55.1105C63.3254 55.4172 63.2921 55.7272 63.2721 56.0405C62.3621 58.1505 62.7621 61.1105 64.7521 61.6105ZM64.4621 55.7105C65.4821 54.3905 67.1021 54.7405 67.8121 56.0105C68.1021 56.5305 68.2521 57.1905 68.2521 57.8505C67.9621 57.2305 67.4821 56.7105 66.9721 56.3605C65.8621 55.6205 64.782 56.4905 65.202 57.9105C65.322 58.3405 65.972 58.2805 65.952 57.7705C65.912 56.8405 66.2321 56.9805 66.8021 57.5005C67.3421 57.9805 67.9721 58.9705 67.4021 59.7505C66.8521 60.5205 65.9021 60.7905 65.1221 60.5605C64.7754 60.2872 64.5154 59.9038 64.3421 59.4105C64.0521 58.5605 63.952 57.6005 63.952 56.6305C64.0787 56.2972 64.2487 55.9905 64.4621 55.7105Z" fill="#646775"/>
<path fill-rule="evenodd" clip-rule="evenodd" d="M54.982 34.7905C55.392 32.7605 55.412 30.6205 55.672 28.5605C55.722 28.1805 55.142 28.1205 55.072 28.5005C54.742 30.5505 54.192 32.7605 54.402 34.8105C54.442 35.1405 54.922 35.1005 54.982 34.7905Z" fill="#646775"/>
<path fill-rule="evenodd" clip-rule="evenodd" d="M77.8319 76.8205C77.8252 76.8138 77.8219 76.8105 77.8219 76.8105C77.7819 76.5405 77.5319 76.5005 77.3419 76.5905C77.2619 76.5638 77.1886 76.5405 77.1219 76.5205C76.8919 76.4605 76.6719 76.7505 76.8019 76.9805C76.9153 77.1738 77.0553 77.3672 77.2219 77.5605C77.5119 79.4905 78.2519 81.2305 79.4619 82.6205C79.6419 82.8305 80.0319 82.7905 80.1619 82.5005C80.6919 81.2905 80.4719 80.1505 79.8819 79.1105C79.4219 78.3005 78.6719 77.3305 77.8319 76.8205ZM78.3019 78.6805C79.0219 79.4205 79.6919 80.2205 79.6119 81.2305C79.0519 80.4638 78.6153 79.6138 78.3019 78.6805Z" fill="#646775"/>
<path fill-rule="evenodd" clip-rule="evenodd" d="M100.992 54.2205C99.652 52.7205 96.8119 51.8605 94.4619 52.3605C95.1219 51.7005 95.6119 50.8305 95.8419 49.6905C96.4019 46.8905 95.132 43.9505 93.742 41.8505C92.342 39.7305 90.292 37.8405 87.802 37.6405C87.7753 37.6405 87.7453 37.6405 87.7119 37.6405C88.9219 35.7805 89.722 33.6305 89.492 31.4505C89.452 31.1405 89.082 31.0305 88.872 31.1905C87.232 32.3705 86.042 33.9405 85.282 35.7705C84.092 33.8405 81.2419 32.9805 78.8419 33.2505C79.1753 33.0372 79.5019 32.8238 79.8219 32.6105C81.0019 31.8305 82.522 30.6205 82.532 28.9705C82.532 28.6405 82.2819 28.4805 82.0119 28.5405C79.6819 29.0505 78.1819 30.9605 76.5719 32.7805C77.6519 29.9805 78.1319 26.8805 77.8819 24.4805C77.8419 24.1305 77.372 24.0305 77.172 24.2905C75.432 26.5405 73.7019 29.1005 72.6419 31.8705C72.4619 31.0838 72.2586 30.3738 72.032 29.7405C70.882 26.6405 68.052 24.8605 65.912 22.7405C65.712 22.5405 65.382 22.5805 65.222 22.8705C62.452 27.9805 65.892 35.5005 69.602 39.0005C68.392 39.0205 67.102 39.5005 65.932 40.2805C67.032 38.0705 67.0119 35.4405 64.7019 33.6405C62.9219 32.2405 60.6519 31.9105 58.6519 32.6305C60.5119 30.3605 61.962 27.5505 62.992 24.9205C63.102 24.6305 63.042 24.3105 62.752 24.2305C61.122 23.7905 60.582 24.9905 59.352 26.4005C59.0453 26.7538 58.752 27.1205 58.472 27.5005C58.892 25.0905 58.972 22.6405 58.622 20.2405C58.582 19.9205 58.232 19.8205 57.992 19.9705C54.342 22.2905 52.772 27.3905 52.872 32.0505C51.982 30.1805 50.282 29.1705 49.182 27.4905C50.192 24.2405 50.6019 20.4105 51.0919 18.2605C51.1919 17.8205 50.7019 17.4605 50.3919 17.8305C48.7119 19.8405 47.082 22.3605 46.102 25.0505C46.162 22.2905 45.792 19.4705 45.292 17.0505C45.232 16.7605 44.852 16.6405 44.662 16.8805C42.252 19.9105 41.992 24.5705 44.432 27.3405C44.612 27.5405 44.8419 27.3805 44.9019 27.1605C44.8486 27.6538 44.7953 28.1438 44.742 28.6305C44.5753 28.1972 44.3853 27.7872 44.172 27.4005C42.172 23.7405 38.512 22.0805 35.292 24.1305C36.322 22.4305 36.932 20.1505 36.912 18.3805C36.912 18.0305 36.582 17.8205 36.302 18.0005C34.292 19.3005 33.572 21.9205 34.172 24.1905C34.172 24.1972 34.1686 24.2072 34.162 24.2205C34.142 24.2138 34.1186 24.2138 34.0919 24.2205C33.3519 24.4405 32.742 23.4905 32.102 23.3205C31.212 23.0905 30.3919 23.0005 29.4519 23.2705C27.0719 23.9405 25.3619 25.3605 23.7019 27.3905C22.5019 28.8605 21.592 30.8805 21.252 32.9305C20.522 30.7605 18.762 29.0105 16.982 28.0405C16.632 27.8505 16.212 28.1905 16.292 28.6405C16.792 31.1705 18.6019 33.2105 20.7119 34.1505C20.7253 34.1772 20.7353 34.2072 20.742 34.2405C17.512 35.7405 16.0019 39.2005 16.2119 42.9705C15.3219 41.2805 14.332 39.6405 13.282 38.1805C13.052 37.8705 12.4819 38.1405 12.5219 38.5605C12.8419 42.2505 14.432 45.5405 17.222 47.4705C17.382 47.5805 17.5319 47.5505 17.6519 47.4505C17.8519 47.7838 18.0753 48.0972 18.3219 48.3905C18.0419 48.1772 17.7753 47.9738 17.5219 47.7805C14.8719 45.7805 11.352 43.8005 7.98196 43.8405C7.62196 43.8405 7.46194 44.2805 7.58194 44.6005C9.15194 48.7005 12.352 51.4005 16.042 52.8105C13.312 52.4305 9.95198 54.3705 7.68198 55.7005C7.28198 55.9405 7.42194 56.5205 7.77194 56.6505C9.70194 57.3405 11.702 56.8905 13.672 56.1405C10.842 57.6405 8.32198 59.9805 6.37198 62.9605C6.12198 63.3405 6.50197 63.8005 6.86197 63.6805C11.872 61.9805 16.832 60.5605 20.862 56.7805C20.452 57.8105 20.132 58.8705 20.112 59.9905C20.112 60.2605 20.2619 60.4005 20.4519 60.4305C18.0719 61.4005 15.772 62.9505 14.442 64.1605C14.152 64.4105 14.332 64.9005 14.622 64.9905C18.712 66.1605 22.922 65.3205 26.532 62.6205C26.0386 63.1138 25.5753 63.6872 25.1419 64.3405C22.1919 67.3305 20.232 71.9605 20.302 76.0805C20.312 76.4705 20.662 76.6805 20.982 76.4905C25.142 73.9505 26.562 68.7705 27.122 63.8905C27.4086 63.6572 27.6986 63.4372 27.992 63.2305C28.292 64.1305 28.702 64.9705 29.172 65.6805C29.552 66.2505 30.0719 66.7505 30.6519 67.1105C29.6619 66.9005 28.6819 66.8205 27.8819 66.8805C27.4719 66.9105 27.272 67.4605 27.542 67.7805C29.162 69.7305 31.442 70.2805 33.722 70.7805C32.462 71.1305 31.042 71.9905 30.492 72.3405C28.542 73.5905 25.8619 75.7205 25.2619 78.2805C25.1719 78.6605 25.472 79.0005 25.812 78.8805C28.592 77.9605 30.862 75.9805 32.992 73.8305C29.242 78.8305 25.822 87.1405 26.552 93.0805C26.592 93.4105 26.982 93.5405 27.222 93.3705C30.552 90.9805 32.722 86.6105 33.972 82.0505C33.612 86.9005 34.932 92.1205 37.972 95.2105C38.212 95.4505 38.662 95.3405 38.752 94.9405C39.482 91.7705 39.2219 88.4405 38.5919 85.3605C38.4519 84.6705 38.2419 83.8405 37.9519 83.0105C39.0519 84.0405 40.352 84.8205 41.722 85.3305C41.6886 85.3572 41.6586 85.3938 41.6319 85.4405C39.9319 90.6705 38.682 96.0805 37.292 101.39C36.412 104.75 35.2219 108.51 35.5719 111.97C35.6219 112.54 36.4219 112.54 36.4019 111.93C36.3953 111.79 36.3919 111.647 36.3919 111.5C36.5453 111.447 36.5653 111.167 36.4519 110.66C36.5053 109.347 36.6753 108.044 36.9619 106.75C37.3919 104.45 38.032 102.17 38.612 99.9005C39.362 96.9805 40.1619 94.0505 40.9019 91.1205C40.9086 91.1538 40.9153 91.1905 40.922 91.2305C38.702 99.2805 37.142 107.83 37.282 115.97C37.292 116.51 38.022 116.48 38.042 115.93C38.252 108.03 39.842 100.48 41.482 92.8405C41.6153 93.1205 41.762 93.3938 41.922 93.6605C41.342 96.2105 40.912 98.8105 40.532 101.34C39.912 105.54 38.972 111.26 40.662 115.14C40.822 115.49 41.272 115.21 41.222 114.86C40.282 108.36 40.932 101.29 42.552 94.5705C42.832 94.9238 43.1386 95.2572 43.472 95.5705C43.5786 95.6638 43.6886 95.7605 43.802 95.8605C42.852 102.33 42.5919 108.99 42.7019 115.24C42.7119 115.59 43.142 115.55 43.182 115.21C43.942 108.99 44.322 102.86 44.972 96.7205C45.1386 96.8272 45.312 96.9305 45.492 97.0305C45.172 99.6105 44.9719 102.2 44.7719 104.8C44.5119 108 43.122 113.42 44.312 116.33C44.402 116.55 44.762 116.49 44.802 116.24C45.062 114.74 45.272 113.244 45.432 111.75C45.5986 113.05 45.8319 114.274 46.1319 115.42C46.2119 115.73 46.6519 115.67 46.6519 115.32C46.6519 109.31 46.5919 103.52 47.2019 97.7505C47.7219 97.8905 48.2253 97.9338 48.7119 97.8805C48.7719 97.8672 48.8286 97.8372 48.8819 97.7905C48.1019 103.41 47.852 109.05 46.872 114.67C46.782 115.19 47.4519 115.39 47.5819 114.86C48.9219 109.36 49.492 103.35 49.442 97.7005C49.6887 97.7605 49.992 97.8105 50.352 97.8505C50.272 98.0105 50.262 98.2105 50.372 98.3805C51.922 100.57 51.992 102.87 52.042 105.62C52.052 106.05 52.652 106.15 52.742 105.69C53.152 103.54 52.862 101.44 52.042 99.6105C52.792 100.18 53.742 100.85 54.782 101.52C56.342 103.96 56.372 106.61 56.682 109.51C56.722 109.84 57.152 109.77 57.232 109.49C57.912 107.05 57.5119 104.67 56.5119 102.57C60.4319 104.82 64.752 106.35 64.602 102.47C64.492 99.5205 60.6619 98.6905 58.6519 98.1405C58.1853 98.0205 57.7187 97.9138 57.252 97.8205C60.412 97.4405 63.202 96.5305 62.922 94.7005C62.402 91.2805 53.252 93.6305 49.742 95.8405C49.6353 95.7872 49.532 95.7372 49.432 95.6905C49.3986 95.6838 49.3686 95.6805 49.3419 95.6805C49.3019 95.4672 49.2653 95.2705 49.232 95.0905C49.1986 94.9305 49.1253 94.8372 49.0119 94.8105C49.8719 93.1605 50.472 91.3705 50.992 89.5705C51.382 88.2005 52.1519 86.1905 51.8919 84.7705C51.8586 84.6572 51.7953 84.5838 51.7019 84.5505C51.7819 84.4305 51.8653 84.3172 51.9519 84.2105C51.9986 84.4505 52.0486 84.6905 52.102 84.9305C51.782 88.0005 51.712 91.2505 52.782 93.9905C52.932 94.3905 53.5519 94.2705 53.6319 93.8305C53.9719 91.8805 54.1019 89.6005 53.7719 87.5105C55.5319 90.0605 59.762 91.0905 61.992 88.9205C62.692 88.2405 63.042 87.3905 63.062 86.5305C64.272 88.8405 65.9819 90.9105 67.0919 93.2505C67.2719 93.6305 67.842 93.5305 67.932 93.1005C68.592 90.1605 67.7119 87.1005 66.1419 84.7605C68.7919 85.8305 71.5119 86.7805 73.8419 88.5805C74.1019 88.7805 74.582 88.4905 74.542 88.1105C74.012 82.6305 67.6819 77.7705 62.7119 79.7205C65.3019 77.2205 67.242 74.0205 67.422 70.5005C67.572 67.6805 67.172 65.3805 65.662 63.2205C64.932 62.1805 63.712 61.8705 62.612 61.6305C61.562 61.4005 62.0419 60.7405 62.0919 59.7305C62.4419 52.6205 50.8119 50.9105 47.0719 56.2205C46.1119 55.0305 44.122 55.1505 42.172 55.9605C42.942 54.9305 43.4219 53.5905 43.7619 52.2905C43.7819 52.3305 43.8019 52.3705 43.8219 52.4105C44.2119 52.9505 44.8719 53.1105 45.5219 53.1305C47.0719 55.0105 49.4819 54.3805 51.1519 52.7505C51.2519 52.9105 51.432 53.0005 51.602 52.8605C51.6553 52.8205 51.7053 52.7805 51.752 52.7405C51.7987 52.7805 51.8586 52.8038 51.932 52.8105C54.202 52.7805 56.4119 51.2005 58.6419 50.6605C58.8319 50.6105 58.952 50.4205 58.982 50.2205C60.792 52.0005 62.912 53.3705 65.252 53.7005C65.742 53.7605 65.982 52.9405 65.472 52.8305C65.3986 52.8105 65.3253 52.7905 65.252 52.7705C65.2853 52.7172 65.2986 52.6538 65.292 52.5805C65.232 51.9705 64.6319 51.6405 64.2619 51.2705C63.6953 50.7038 63.1453 50.1172 62.612 49.5105C62.252 49.1205 61.682 49.7605 62.032 50.1705C62.5453 50.7972 63.0753 51.4005 63.622 51.9805C63.7353 52.1005 63.8553 52.2305 63.982 52.3705C60.852 51.1405 58.222 48.3005 56.352 45.3305C60.872 45.1305 64.272 49.5805 66.472 53.3305C66.692 53.7105 67.2119 53.4505 67.1519 52.9905C66.7819 50.6005 64.982 48.3105 62.732 46.6805C65.762 45.2605 67.6019 42.2805 70.0919 40.0105C70.1853 39.9172 70.2253 39.8138 70.2119 39.7005C70.2586 39.6805 70.3053 39.6638 70.352 39.6505C70.4386 39.7172 70.522 39.7838 70.602 39.8505C70.6286 39.8638 70.6553 39.8738 70.682 39.8805C64.932 43.5105 65.522 53.8905 70.732 57.2705C70.682 57.3105 70.632 57.3305 70.602 57.4005C68.512 62.2905 66.752 68.5905 68.692 73.6005C68.672 73.5872 68.6519 73.5772 68.6319 73.5705C68.3819 73.5105 68.2519 73.8905 68.4519 74.0305C69.8319 75.0038 71.0586 76.0605 72.1319 77.2005C72.2386 77.6472 72.3586 78.0872 72.492 78.5205C72.622 78.9505 73.1319 78.9805 73.3219 78.5605C74.5619 80.0805 75.622 81.7805 76.602 83.7105C72.612 82.2705 69.8719 78.7105 68.2019 74.4605C68.0319 74.0405 67.3719 74.3805 67.5119 74.8105C69.2019 79.8405 72.602 83.8905 77.432 85.0705C77.822 85.1705 78.1419 84.6805 77.9619 84.3005C76.8219 81.8805 75.4619 79.2305 73.7019 77.1305C74.4819 73.5005 74.4619 68.9405 73.0819 65.7705C73.1019 65.6038 73.0553 65.4872 72.942 65.4205C72.9153 65.3538 72.8886 65.2905 72.862 65.2305C72.732 64.9805 72.2919 65.0905 72.3219 65.4205C72.3353 65.5805 72.352 65.7372 72.372 65.8905C71.572 68.9305 71.3519 72.1705 71.7719 75.2405C71.0386 74.6472 70.2386 74.1772 69.372 73.8305C69.432 73.7905 69.4786 73.7405 69.5119 73.6805C70.9519 70.8305 72.132 66.9905 72.482 63.3005C73.102 64.8405 73.982 66.2805 75.112 67.5305C75.652 68.1405 76.442 68.5505 77.292 68.8005C74.632 70.7905 73.252 75.1705 76.062 77.5105C76.392 77.7905 76.872 77.1105 76.542 76.8305C73.982 74.6605 75.702 70.8905 78.182 69.3205C78.362 69.2138 78.5453 69.1238 78.732 69.0505C79.3053 69.0838 79.8619 69.0305 80.4019 68.8905C83.2019 69.3405 85.6719 73.0805 82.8919 75.4205C80.6719 77.2905 76.6919 75.2805 78.3419 72.0805C79.0519 70.6905 81.332 70.9005 82.042 71.9705C82.302 72.3705 82.292 72.9405 82.182 73.4205C81.932 74.4505 81.4919 73.2605 81.3419 72.9005C81.1619 72.4405 80.6019 72.8105 80.6519 73.2405C80.8119 74.5905 81.942 75.7105 82.852 74.1605C83.852 72.4405 82.6419 70.6805 81.2119 70.2505C76.8119 68.9005 75.7219 75.8405 79.6319 77.1105C80.7319 77.4705 82.132 77.1305 83.222 76.3305C82.082 79.5305 81.642 83.0905 82.252 86.3305C82.352 86.8305 83.0119 86.7705 83.1419 86.2905C84.1219 82.6805 86.272 77.8205 84.732 74.2305C84.772 74.0805 84.832 73.9305 84.862 73.7705C84.9086 73.3438 84.9086 72.9272 84.862 72.5205C86.722 75.8305 89.662 78.1605 92.722 80.1005C92.952 80.2505 93.3519 80.1105 93.4019 79.7705C93.8119 77.1205 92.2819 73.9605 90.0819 71.8805C91.6319 71.8705 93.192 71.4105 94.802 70.8605C95.252 70.7005 95.2319 70.0205 94.8219 69.8905C93.1619 69.3505 91.3519 68.9505 89.5119 68.7505C92.6519 67.4205 95.2619 64.0905 93.7119 58.9505C93.6319 58.7005 93.2419 58.7405 93.2619 59.0405C93.6519 63.8205 91.9219 67.7805 87.7619 68.6305C86.9686 68.6172 86.1886 68.6472 85.422 68.7205C84.902 68.6138 84.4053 68.4238 83.932 68.1505C83.4586 67.8372 83.1287 67.4238 82.942 66.9105C83.192 66.2505 83.222 65.4305 82.942 64.4505C82.822 64.0505 82.272 64.0205 82.162 64.4805C82.002 65.1938 81.9686 65.8272 82.062 66.3805C79.0686 68.5938 76.7019 68.4405 74.9619 65.9205C73.7619 64.6005 72.9719 62.9105 72.5719 61.0905C72.5653 60.0438 72.4653 59.0438 72.2719 58.0905C72.2719 58.0638 72.2719 58.0372 72.2719 58.0105C72.3986 58.0638 72.5253 58.1105 72.6519 58.1505C72.9919 58.2405 73.1919 57.7105 72.9019 57.5205C72.7019 57.3805 72.5086 57.2405 72.3219 57.1005C72.5019 55.0105 73.162 52.9505 74.312 51.2305C74.572 50.8505 74.0219 50.5205 73.7619 50.8905C72.5519 52.6505 71.8619 54.5305 71.5919 56.4305C71.5653 56.4372 71.5353 56.4472 71.502 56.4605C69.572 54.8405 68.282 52.8505 67.622 49.9405C66.732 46.0005 68.1719 41.7105 71.7619 39.9905C72.1119 39.8205 71.982 39.1905 71.622 39.3505C71.452 39.4205 71.322 39.5305 71.162 39.6105C71.232 39.4205 71.212 39.1905 71.032 39.0405C67.662 36.3205 63.532 28.9305 65.722 23.8905C67.572 25.6605 69.5919 27.1905 70.9019 29.5705C71.7419 31.0905 71.8819 32.7105 71.9019 34.3505C71.7086 35.2638 71.6153 36.1905 71.622 37.1305C71.4286 36.7705 71.242 36.4172 71.062 36.0705C70.6286 35.1638 70.2553 34.2238 69.942 33.2505C69.802 32.8405 69.2219 33.0205 69.3319 33.4605C69.5653 34.4338 69.862 35.3772 70.222 36.2905C70.532 37.0905 70.902 38.0305 71.532 38.5605C71.5053 38.5938 71.4819 38.6238 71.4619 38.6505C71.2519 38.9505 71.492 39.3305 71.802 39.1505C71.902 39.0905 71.9986 39.0272 72.0919 38.9605C72.1719 39.1905 72.4419 39.1805 72.5919 39.0105C71.1819 42.6505 71.232 47.0905 73.622 49.4105C73.862 49.6305 74.272 49.3205 74.102 49.0005C71.852 44.7505 72.2619 39.4005 75.8219 35.7105C78.1119 33.3305 83.862 33.8005 84.852 37.0405C84.6986 37.5672 84.582 38.1072 84.502 38.6605C83.542 38.2005 82.362 38.3305 81.352 38.7005C80.232 39.1105 78.9619 39.9505 78.4519 41.2205C78.1019 42.1105 78.302 42.9005 78.732 43.5405C76.862 44.8505 75.3119 46.8705 75.4019 48.7305C73.8619 50.7805 73.982 53.6305 74.912 55.8805C75.612 57.5705 77.6119 59.4705 79.4519 58.9505C79.5519 61.4805 80.862 63.2905 83.752 62.5705C84.962 62.2705 86.1919 61.3905 86.8919 60.2805C87.7619 60.9705 89.1119 61.0105 90.5119 60.2505C92.2019 59.3405 92.9119 57.1505 92.6519 55.3305C95.0519 56.7205 99.032 57.4205 100.972 54.9405C101.142 54.7205 101.172 54.4205 100.992 54.2205ZM44.862 26.8505C43.182 24.4905 43.0619 20.9005 44.6519 18.2605C44.9119 20.2305 45.0919 22.2005 45.0919 24.2205C45.1019 25.1705 45.012 26.1205 44.912 27.0505C44.9186 26.9838 44.902 26.9172 44.862 26.8505ZM17.622 29.6805C18.1353 30.0605 18.612 30.5038 19.052 31.0105C19.472 31.5005 19.782 32.0505 20.052 32.6305C19.052 31.8305 18.162 30.9005 17.622 29.6805ZM51.162 98.0505C51.1353 98.0105 51.1086 97.9705 51.0819 97.9305C51.2019 97.9372 51.3186 97.9438 51.432 97.9505C52.222 98.5405 52.9719 99.1905 53.6319 99.9605C52.8053 99.3338 51.982 98.6972 51.162 98.0505ZM62.672 100.86C64.342 101.97 63.702 104.09 61.682 104.19C59.972 104.28 58.2819 103.09 56.8819 102.22C56.6019 102.04 56.322 101.857 56.042 101.67C55.242 100.28 54.1819 99.0405 53.0219 98.0205C53.0619 98.0205 53.0986 98.0205 53.1319 98.0205C56.4919 98.4005 59.942 99.0605 62.672 100.86ZM54.4519 95.0105C56.6519 94.4205 59.1719 93.8905 61.3819 94.3505C63.2519 94.7305 59.662 96.2505 59.492 96.3005C58.282 96.6505 57.032 96.8105 55.802 96.9505C55.172 97.0305 54.4519 97.1105 53.7119 97.1805C53.0253 97.0938 52.3386 97.0172 51.6519 96.9505C51.2786 96.6905 50.8986 96.4538 50.5119 96.2405C51.7819 95.6005 53.3919 95.2905 54.4519 95.0105ZM57.752 30.6105C58.282 29.3505 59.0319 28.2105 59.9519 27.0705C60.4519 26.4705 60.9919 25.9005 61.5219 25.3405C61.7619 25.0905 61.8819 25.0205 62.0219 25.0305C60.7219 28.0205 59.002 30.3805 57.102 32.8105C57.142 32.5905 57.1886 32.3772 57.242 32.1705C57.4286 31.6572 57.5987 31.1372 57.752 30.6105ZM56.742 22.1705C58.472 19.9505 57.992 22.5005 58.002 23.7705C58.012 25.7005 57.582 27.6205 57.112 29.4905C57.0253 29.8438 56.9253 30.1905 56.812 30.5305C56.692 30.8438 56.5919 31.1638 56.5119 31.4905C55.9319 33.1505 55.1919 34.7405 54.3919 36.3005C53.1219 31.7905 53.772 25.9605 56.742 22.1705ZM48.812 28.5705C49.752 29.7705 50.9519 30.6705 51.8319 31.9805C52.6219 33.1405 52.782 34.7705 52.802 36.4005C52.7153 36.3072 52.6286 36.2138 52.542 36.1205C51.992 35.4905 51.582 34.7105 51.302 33.8705C51.142 33.4005 50.4519 33.6105 50.5919 34.1205C50.8019 34.9005 51.192 35.8505 51.732 36.6305C50.002 34.6905 48.412 32.3005 48.372 29.6405C48.5253 29.2938 48.672 28.9372 48.812 28.5705ZM49.852 19.9205C49.442 22.0305 49.072 24.3905 48.432 26.5505C48.232 26.5505 48.0319 26.6805 47.9519 26.9005C47.6986 27.6005 47.5453 28.2872 47.492 28.9605C47.142 29.6805 46.742 30.3505 46.242 30.9205C46.392 30.5805 46.502 30.2105 46.602 29.8805C46.852 29.1005 47.0219 28.2905 47.2119 27.5005C47.3219 27.0105 46.682 26.8405 46.542 27.3305C46.402 27.8172 46.2553 28.3005 46.102 28.7805C46.542 25.5805 47.972 22.5105 49.852 19.9205ZM36.002 19.3805C35.842 20.4605 35.502 21.4605 35.042 22.4805C34.962 22.6538 34.8786 22.8238 34.792 22.9905C34.702 21.6605 35.092 20.3205 36.002 19.3805ZM13.8219 40.8505C14.7219 42.5605 15.502 44.4005 16.672 45.8205C15.322 44.5105 14.3519 42.7805 13.8219 40.8505ZM17.1319 43.4105C16.5219 39.9605 18.132 36.3105 21.112 34.8305C21.142 35.9605 21.3419 37.0405 21.8319 37.9905C21.7419 40.1405 22.282 42.0105 23.622 42.8305C22.062 44.4405 21.5119 47.4105 22.2719 49.6705C22.2519 49.6305 22.2253 49.5972 22.192 49.5705C19.492 48.2205 17.7519 46.9005 17.1319 43.4105ZM12.692 49.8705C11.232 48.8405 10.072 47.4105 9.12198 45.8205C8.05198 44.0205 9.26197 44.8905 10.492 45.2405C14.352 46.3405 19.1119 49.1505 21.2619 53.2005C21.2319 53.1905 21.222 53.1505 21.182 53.1405C21.1753 53.1405 21.1653 53.1405 21.1519 53.1405C20.0619 51.8905 18.502 50.9405 17.242 50.0105C16.842 49.7205 16.4719 50.4505 16.8419 50.7505C17.5819 51.3505 18.3419 52.1105 19.1419 52.7805C16.8419 52.2405 14.692 51.2705 12.692 49.8705ZM9.30197 55.9205C11.622 54.6905 13.8119 54.0105 16.3319 53.9805C14.0219 54.9505 11.642 56.1505 9.30197 55.9205ZM8.00198 62.2705C10.672 58.7705 14.1619 56.3705 18.0219 55.5905C17.0719 56.0205 16.172 56.5705 15.362 57.3405C15.022 57.6605 15.432 58.2305 15.792 57.9805C17.422 56.8605 19.092 56.1905 20.862 55.7005C17.082 59.2405 12.642 60.7405 8.00198 62.2705ZM16.232 55.0605C17.0386 54.7005 17.8286 54.3772 18.602 54.0905C18.822 54.0205 18.9119 53.8205 18.9019 53.6305C19.5153 53.7505 20.132 53.8372 20.752 53.8905C20.9587 54.0038 21.1686 54.0972 21.3819 54.1705C21.5119 54.2105 21.6119 54.1405 21.6519 54.0205C21.6986 54.1272 21.7453 54.2305 21.792 54.3305C19.882 54.1905 18.022 54.4805 16.232 55.0605ZM26.172 61.8305C26.172 61.7105 26.142 61.6005 26.032 61.5405C24.722 60.7605 22.852 61.5505 21.472 61.9605C21.022 62.0905 21.2019 62.8205 21.6419 62.7205C22.3219 62.5505 23.002 62.3705 23.682 62.2705C24.322 62.1805 24.932 62.2805 25.552 62.2705C22.502 64.2405 19.172 64.9505 15.792 64.2205C18.972 61.6605 23.2219 59.9405 26.7719 61.4005C26.5719 61.5472 26.372 61.6905 26.172 61.8305ZM21.2719 75.1205C21.4019 72.7605 22.172 70.4205 23.362 68.3605C23.172 69.2205 23.092 70.0705 23.182 70.8505C23.242 71.3005 23.9319 71.1705 23.9019 70.7205C23.7019 68.3905 24.8819 66.6805 26.0219 64.9105C26.0753 64.8505 26.1286 64.7905 26.182 64.7305C25.462 68.7105 24.4219 72.7505 21.2719 75.1205ZM29.6419 64.8505C29.9153 65.1038 30.2253 65.3072 30.5719 65.4605C32.6719 66.3905 35.712 64.3205 34.352 61.6105C33.972 60.8605 32.6819 59.9005 31.8419 60.6005C30.8519 61.4205 31.092 62.4705 31.622 63.4505C31.882 63.9405 32.5619 63.4805 32.3319 62.9705C32.9519 61.5838 33.3986 61.4505 33.672 62.5705C34.282 64.4205 32.2219 64.7505 31.3919 64.6505C30.7719 64.5705 30.2319 64.1405 29.8219 63.6705C29.0719 62.8005 29.072 61.4005 29.362 60.2605C30.242 56.9105 33.712 57.7705 34.812 60.1605C35.752 62.2005 35.3319 66.3405 32.7019 66.6705C31.4519 66.8305 30.4019 66.0405 29.6419 64.8505ZM29.222 67.9705C29.9353 68.0572 30.6386 68.2205 31.3319 68.4605C32.1819 68.7505 32.872 69.2405 33.562 69.7305C32.022 69.3605 30.492 68.9405 29.222 67.9705ZM32.542 67.7005C33.202 67.7005 33.882 67.4905 34.482 66.9405C34.7886 66.6472 35.0519 66.3305 35.2719 65.9905C35.0919 67.2505 35.042 68.5105 35.172 69.6805C34.582 68.8105 33.632 68.1505 32.542 67.7005ZM26.502 77.5505C27.312 75.9205 29.012 74.6005 30.282 73.6605C31.232 72.9605 32.2719 72.3805 33.3419 71.9905C33.4753 71.9438 33.602 71.9172 33.722 71.9105C31.462 74.0705 29.262 76.3405 26.502 77.5505ZM32.602 82.9705C32.072 84.6605 31.3619 86.2705 30.5719 87.8405C30.4319 88.1205 27.382 92.1605 27.372 91.5305C27.232 86.0505 30.472 78.7505 33.792 74.1505C32.932 76.9905 31.732 79.9505 31.502 82.8705C31.482 83.1005 31.7919 83.1805 31.8919 82.9705C32.9219 80.8105 33.592 78.3405 34.182 75.9405C33.882 78.3205 33.332 80.6605 32.602 82.9705ZM38.042 93.7105C35.282 90.3305 34.392 85.0405 35.002 80.3405C35.2287 81.1938 35.4486 82.0505 35.662 82.9105C35.872 83.7505 35.9819 84.7105 36.5119 85.3705C36.6119 85.4905 36.822 85.4205 36.852 85.2505C37.042 84.3905 36.752 83.5605 36.532 82.7605C38.142 85.9705 38.712 89.8605 38.042 93.7105ZM61.182 62.6605C68.062 62.3505 67.1919 71.0605 64.7019 75.6205C63.5019 77.8305 61.7419 79.5705 59.7719 80.9505C58.4319 80.5805 57.062 80.3805 55.662 80.7905C54.162 81.2405 53.172 82.8605 53.002 84.4905C53.042 84.0038 53.082 83.5272 53.122 83.0605C53.172 82.4705 52.392 82.5405 52.312 83.1005C52.2986 83.2338 52.2819 83.3705 52.2619 83.5105C52.2486 83.4972 52.2353 83.4872 52.222 83.4805C52.122 83.2405 51.842 83.1005 51.622 83.3605C50.742 84.3605 49.9719 85.5505 49.3319 86.8405C49.5186 86.2205 49.7153 85.6005 49.922 84.9805C50.022 84.6905 49.622 84.5205 49.492 84.7905C49.032 85.7905 48.6019 86.8572 48.2019 87.9905C48.4153 87.1638 48.6553 86.3372 48.922 85.5105C49.032 85.1505 48.5319 84.9305 48.3819 85.2805C46.9419 88.6905 46.1619 92.2405 45.6519 95.8405C45.4653 95.7472 45.282 95.6472 45.102 95.5405C45.472 92.3005 45.902 89.0505 46.542 85.7805C47.762 85.5405 48.9619 85.0405 50.0719 84.1805C50.3719 83.9705 50.1319 83.5105 49.8219 83.6905C43.6919 87.2005 35.402 82.4105 35.192 75.2905C35.2453 74.6772 35.282 74.0772 35.302 73.4905C35.382 72.9705 35.5053 72.4438 35.672 71.9105C36.242 73.3905 37.212 74.5505 38.742 75.0705C38.982 76.4205 39.452 77.6805 40.122 78.6505C42.102 81.5105 46.052 81.5405 48.602 79.5605C49.612 79.9705 50.712 80.1905 51.852 80.1705C54.972 80.1305 58.072 77.3805 57.542 73.6805C59.302 73.5105 62.122 72.4705 62.062 70.0905C62.022 67.8505 60.392 66.7105 58.672 66.0705C60.542 65.0105 61.032 63.5605 60.752 62.2905C60.792 62.5005 60.982 62.6705 61.182 62.6605ZM42.8219 93.3805C43.4753 90.8672 44.2453 88.4405 45.1319 86.1005C45.1619 86.0405 45.1419 85.9905 45.1319 85.9405C45.3919 85.9272 45.652 85.9005 45.912 85.8605C45.082 88.7105 44.462 91.6805 43.982 94.6905C43.5486 94.3038 43.1619 93.8672 42.8219 93.3805ZM48.672 96.7005C48.6186 96.7538 48.5686 96.8038 48.5219 96.8505C48.4819 96.9172 48.4619 96.9805 48.4619 97.0405C48.0953 96.8538 47.7219 96.6872 47.3419 96.5405C47.4086 95.9738 47.482 95.4105 47.562 94.8505C47.5753 95.1305 47.5953 95.4138 47.622 95.7005C47.692 96.1705 48.262 96.1405 48.482 95.7905C48.4953 95.7572 48.512 95.7272 48.532 95.7005C48.5653 96.0338 48.612 96.3672 48.672 96.7005ZM50.8819 85.7805C50.6219 86.7405 50.5019 87.8105 50.2719 88.7005C49.8119 90.4805 49.242 92.2605 48.432 93.9105C48.432 91.1605 49.4419 88.1805 50.8819 85.7805ZM53.982 83.9305C54.572 81.5205 56.622 81.3405 58.622 81.6905C57.102 82.6205 55.512 83.3605 53.972 83.9705C53.972 83.9505 53.9753 83.9372 53.982 83.9305ZM59.9519 81.9805C60.4786 82.1205 60.9553 82.2505 61.3819 82.3705C61.5086 82.4505 61.6353 82.5272 61.7619 82.6005C61.8286 83.0872 61.9286 83.5572 62.062 84.0105C61.002 82.9805 59.3819 82.8705 57.9519 83.1905C58.6253 82.8305 59.2919 82.4272 59.9519 81.9805ZM58.552 89.0505C56.572 88.9705 53.8719 87.1505 53.8919 84.7205C54.6386 84.5538 55.4086 84.3138 56.2019 84.0005C55.4319 84.6705 54.982 85.7305 55.682 86.6805C56.882 88.3305 59.052 87.6505 60.482 86.5405C60.782 86.3105 60.812 85.8505 60.502 85.6505C59.452 84.9405 58.612 85.2105 57.492 85.8205C57.172 86.0005 57.242 86.4805 57.482 86.6405C57.012 86.5905 56.6019 86.3705 56.3219 85.8505C55.4519 84.2205 59.582 84.0105 60.222 84.1605C61.412 84.4305 62.412 85.6305 62.102 87.0605C61.762 88.6605 59.732 89.0905 58.552 89.0505ZM67.242 91.4905C65.662 88.7605 63.432 86.2605 62.622 83.1205C63.1953 83.4338 63.7786 83.7272 64.372 84.0005C65.772 86.3705 67.392 88.5105 67.242 91.4905ZM73.422 87.0305C71.602 85.7605 69.542 84.7305 67.442 83.8305C67.6287 83.8838 67.8153 83.9238 68.002 83.9505C68.242 83.9805 68.4419 83.6805 68.2619 83.4705C67.6819 82.7405 66.792 82.4805 65.982 82.1705C64.912 81.7505 63.812 81.4605 62.732 81.0805C62.532 81.0005 62.3919 81.1405 62.3319 81.3205C62.3319 81.3072 62.3319 81.2938 62.3319 81.2805C62.3219 81.0805 62.192 80.9805 62.052 80.9505C66.232 78.6305 72.192 82.3205 73.422 87.0305ZM42.242 92.3605C42.0753 92.0205 41.932 91.6672 41.812 91.3005C42.1853 89.5538 42.552 87.8005 42.912 86.0405C42.972 85.7305 42.592 85.6305 42.492 85.9305C42.0786 87.2372 41.6786 88.5605 41.292 89.9005C41.2653 89.8938 41.2386 89.8872 41.2119 89.8805C41.5586 88.4538 41.8753 87.0238 42.162 85.5905C42.1686 85.5572 42.1653 85.5272 42.1519 85.5005C42.8986 85.7338 43.6553 85.8705 44.422 85.9105C43.502 87.9705 42.812 90.1505 42.242 92.3605ZM43.352 70.6705C42.402 69.7605 41.452 69.0805 41.282 67.6005C41.842 67.0505 42.512 66.6405 43.312 66.4505C43.622 66.3805 43.572 65.7905 43.252 65.8405C42.502 65.9705 41.862 66.2405 41.302 66.6205C41.422 65.4605 41.932 64.3205 42.532 63.3705C43.162 62.3805 44.072 61.4105 45.122 61.0805C46.182 60.7505 46.602 61.7905 46.792 62.8005C46.4253 62.9072 46.0853 63.0372 45.7719 63.1905C45.5219 63.3105 45.612 63.7505 45.872 63.6305C46.112 63.5238 46.3653 63.4305 46.6319 63.3505C44.2319 64.9605 42.6919 67.7405 44.1319 70.8305C44.3019 71.1905 44.8219 70.8405 44.6419 70.4805C43.1619 67.5105 44.662 65.1705 46.942 63.8905C47.052 64.3905 47.762 64.3605 47.752 63.7805C47.7453 63.6872 47.7386 63.5905 47.732 63.4905C48.1253 63.3305 48.5253 63.1972 48.932 63.0905C52.312 63.2105 55.952 65.4105 55.352 69.4205C54.702 73.6905 48.682 74.0505 45.912 73.7105C45.702 73.6805 45.522 74.0205 45.742 74.1305C46.972 74.7205 48.612 74.8505 50.222 74.5505C49.812 76.0805 49.3419 77.4105 48.4019 78.4205C46.8719 77.6005 45.662 76.1805 45.192 74.3105C45.042 73.7505 44.2619 74.0205 44.3919 74.5805C44.8919 76.6605 46.102 78.1505 47.662 79.0805C47.3886 79.2872 47.0786 79.4705 46.732 79.6305C44.712 80.5705 42.562 79.8205 41.102 78.3105C40.372 77.5505 39.882 76.4605 39.612 75.2605C39.712 75.2872 39.8186 75.3105 39.932 75.3305C40.202 75.3605 40.4419 74.9205 40.1519 74.7705C39.9119 74.6372 39.6819 74.5072 39.4619 74.3805C39.2019 72.3705 39.5319 70.1705 40.5119 68.5805C40.7519 69.9005 41.522 70.9305 43.102 71.1405C43.322 71.1605 43.552 70.8605 43.352 70.6705ZM48.052 61.4105C47.582 57.8905 50.812 56.3205 53.232 55.9905C55.772 55.6405 57.282 57.8205 56.442 59.6905C55.622 59.9605 54.8119 60.6005 54.1419 61.7705C53.9319 62.1305 54.252 62.6305 54.622 62.4705C55.552 62.0805 56.692 61.4605 57.312 60.4905C59.762 60.3305 61.8219 63.9505 57.2619 65.7005C56.8519 65.8505 56.822 66.5205 57.242 66.6305C58.702 67.0105 60.052 67.5305 60.932 68.9105C62.552 71.4805 58.332 72.6605 57.032 73.1905C56.822 73.2705 56.8119 73.5505 56.9519 73.6605C56.9453 73.6605 56.942 73.6638 56.942 73.6705C56.432 76.9605 54.992 78.9205 51.862 79.1705C51.012 79.2405 50.172 79.1105 49.372 78.8405C50.392 77.7305 51.042 76.2305 50.972 74.3805C51.4586 74.2538 51.9319 74.0905 52.3919 73.8905C52.4119 74.0005 52.5019 74.1105 52.6319 74.0705C58.2819 72.2105 58.072 64.4605 53.192 62.3505C51.702 61.7005 49.862 61.8505 48.192 62.5305C48.0053 62.5572 47.8253 62.5872 47.6519 62.6205C47.6119 62.3672 47.5553 62.1172 47.482 61.8705C47.702 62.0305 48.102 61.8105 48.052 61.4105ZM55.8419 66.1405C55.0919 64.4605 53.462 63.3605 51.622 62.8405C52.2153 62.8938 52.7587 63.0305 53.252 63.2505C54.472 63.8005 55.3719 64.8505 55.8419 66.1405ZM60.7619 62.0505C60.7353 62.1305 60.7286 62.2072 60.742 62.2805C60.422 60.8805 59.1619 59.7105 57.7019 59.5505C57.7419 59.4172 57.7686 59.2772 57.782 59.1305C57.892 57.4105 56.972 55.8805 55.472 55.4005C52.722 54.5505 48.862 55.9005 47.662 58.8505C47.742 57.9705 47.6319 57.3005 47.4019 56.7605C50.8719 50.9805 63.2919 54.4405 60.7619 62.0505ZM46.502 57.2305C46.422 57.3972 46.3486 57.5705 46.282 57.7505C46.172 58.1005 46.5519 58.2405 46.7619 58.0405C46.8819 58.6338 46.8819 59.4005 46.7619 60.3405C46.7219 60.6805 47.092 60.7505 47.292 60.5505C47.2786 60.8372 47.2886 61.1338 47.3219 61.4405C47.0419 60.7605 46.5719 60.2205 45.8319 60.0805C44.4719 59.8305 43.102 61.1505 42.242 62.2405C41.282 63.4705 40.492 65.5305 40.432 67.3605C38.972 68.9205 38.4219 71.4105 38.5819 73.8005C37.3119 72.8705 36.432 71.7205 36.042 69.7305C35.532 67.1205 36.372 64.1405 37.442 61.7405C38.962 58.3305 44.982 54.1305 46.502 57.2305ZM44.442 48.0105C44.262 48.2838 44.0953 48.5638 43.942 48.8505C42.102 51.5505 38.482 53.2905 36.752 51.7505C36.7453 51.7105 36.7353 51.6672 36.722 51.6205C36.682 51.4605 36.592 51.3805 36.482 51.3605C36.602 50.5205 36.392 49.6505 35.692 48.8305C35.472 48.5705 35.072 48.8005 35.052 49.1505C35.002 50.3205 35.202 51.2005 35.552 51.8405C34.452 54.3805 29.352 56.5505 27.292 54.3105C27.002 53.9905 26.5419 54.5105 26.8219 54.8405C29.0719 57.3905 34.052 55.6505 35.852 52.9405C35.632 54.4005 35.692 56.0205 35.722 57.4405C35.752 58.6105 35.9519 60.0805 37.1319 60.3405C37.1386 60.3405 37.1453 60.3405 37.1519 60.3405C36.8053 60.9605 36.4953 61.6338 36.222 62.3605C36.112 59.5705 34.3619 56.8805 31.7019 56.9505C29.9619 57.0005 28.732 58.8305 28.372 60.5705C28.372 60.5905 28.3686 60.6072 28.362 60.6205C28.322 59.6505 28.462 58.7305 28.812 58.0205C29.032 57.5805 28.472 57.2305 28.232 57.6605C27.672 58.6505 27.492 59.7305 27.542 60.8105C25.992 59.1305 23.452 59.3105 20.942 60.2305C21.992 59.2605 23.1719 57.4305 22.8319 55.9005C22.7619 55.6105 22.392 55.5605 22.242 55.8405C21.932 56.4505 21.872 57.1505 21.612 57.7905C21.492 58.0705 21.3486 58.3305 21.182 58.5705C21.422 57.5305 21.872 56.5205 22.282 55.5305C22.442 55.6705 22.692 55.6205 22.802 55.4105C22.9886 55.6505 23.202 55.8605 23.442 56.0405C24.562 56.8605 26.1619 57.1605 27.3419 56.1005C27.5219 55.9405 27.372 55.6405 27.172 55.6405C26.062 55.6605 25.1819 55.9905 24.1419 55.3905C23.0219 54.7505 22.4619 53.2705 22.3219 51.9105C22.2819 51.5105 21.832 51.4405 21.662 51.7005C21.132 50.9405 20.482 50.2605 19.802 49.6405C20.472 50.0205 21.222 50.2205 22.042 50.1505C22.212 50.1405 22.322 49.9405 22.312 49.7705C22.742 50.9905 23.5619 52.0005 24.8319 52.4505C25.1219 52.5505 25.252 52.0905 25.042 51.9205C22.772 50.0905 22.1019 44.8505 24.2719 43.1205C25.1319 43.3805 26.2219 43.3105 27.5819 42.7805C27.9919 42.6205 28.0019 41.9905 27.5919 41.8705C26.3719 41.4805 25.322 41.6505 24.472 42.1605C23.322 41.7605 22.802 40.5505 22.692 39.0205C22.862 38.9505 22.992 38.7305 22.912 38.5205C22.812 38.2805 22.762 38.0405 22.682 37.8105C22.7286 37.1105 22.8353 36.3872 23.002 35.6405C23.522 33.2805 26.3219 26.4305 28.3219 31.0105C28.5219 31.4705 29.112 31.0405 28.942 30.5905C26.992 25.2505 23.462 31.3605 22.502 34.3305C22.3753 34.7238 22.2653 35.1205 22.172 35.5205C21.832 32.3405 23.0319 29.4805 25.4019 26.7305C27.1519 24.7005 30.172 23.3405 32.442 24.5905C32.972 24.8905 33.322 25.1305 33.802 25.1005C33.782 25.1672 33.7586 25.2338 33.732 25.3005C33.7186 25.3605 33.722 25.4138 33.742 25.4605C33.622 25.5805 33.5086 25.7072 33.4019 25.8405C33.1619 26.1305 33.5119 26.5305 33.7619 26.2505C37.3319 22.1405 41.492 24.2605 43.672 28.3205C44.302 29.4905 44.6819 30.8005 44.8819 32.1505C44.7086 32.2705 44.532 32.3805 44.352 32.4805C43.992 32.6605 44.1519 33.3405 44.5219 33.2805C44.6886 33.2405 44.8519 33.1938 45.0119 33.1405C45.0519 33.7138 45.0586 34.2905 45.032 34.8705C44.882 38.0105 43.2019 39.8805 41.4019 42.1105C41.1719 42.4005 41.442 42.7605 41.732 42.6005C45.152 40.7205 46.1519 36.6405 45.7719 32.8205C45.8986 32.7538 46.0219 32.6838 46.1419 32.6105C46.1286 32.6572 46.1319 32.7105 46.1519 32.7705C48.4719 37.1205 47.8619 41.1305 43.9019 44.2805C43.6519 44.4805 43.7819 44.9905 44.0919 44.8305C44.3853 44.6838 44.662 44.5272 44.922 44.3605C45.262 45.6005 45.022 46.8605 44.442 48.0105ZM36.932 59.0805C36.342 58.3105 36.542 56.3105 36.612 54.6205C36.922 56.0805 37.142 57.5605 36.932 59.0805ZM41.852 53.8605C42.242 53.1605 42.7419 52.4905 43.1419 51.7905C42.6619 53.3905 42.012 55.2005 40.722 56.1305C41.0686 55.3572 41.4453 54.6005 41.852 53.8605ZM37.0819 53.0805C38.4419 53.5105 40.2519 53.0105 41.8919 51.9505C41.6019 52.4305 41.3319 52.9205 41.0819 53.3705C40.4286 54.5305 39.8653 55.7405 39.3919 57.0005C39.3119 57.2205 39.402 57.3905 39.552 57.5005C38.952 57.9672 38.4386 58.4705 38.0119 59.0105C37.9319 59.1172 37.8553 59.2272 37.782 59.3405C38.102 57.1705 37.6119 55.1205 37.0819 53.0805ZM49.6519 52.7705C48.7619 53.3505 47.7019 53.5105 46.8219 53.0205C46.8153 53.0138 46.8053 53.0072 46.792 53.0005C47.202 52.9005 47.242 52.1805 46.792 52.2305C46.5786 52.2572 46.352 52.2738 46.112 52.2805C45.852 51.8205 45.7819 51.2505 46.0219 50.6705C46.3319 49.9405 47.0219 49.4105 47.7019 49.2805C48.4619 49.1405 48.962 49.6805 49.292 50.3305C49.052 50.3705 48.7419 50.3605 48.5919 50.4305C48.3119 50.5505 48.2819 50.9805 48.5719 51.0705C49.2319 51.2705 49.612 51.5505 50.172 50.8705C50.312 50.6838 50.3387 50.4872 50.252 50.2805C49.582 48.4805 48.0119 47.7505 46.3919 48.8605C45.3819 49.5605 44.792 50.9505 45.052 52.1405C44.762 52.0305 44.5019 51.8405 44.3419 51.5205C43.9819 50.8205 44.4719 49.7605 44.8219 49.1105C44.9353 48.9305 45.0419 48.7505 45.1419 48.5705C46.1619 46.9505 47.8619 45.4605 49.5919 45.4605C50.6619 45.4605 51.362 46.3905 51.792 47.3505C52.742 49.4605 51.3619 51.6505 49.6519 52.7705ZM62.122 46.2505C62.122 46.2572 62.122 46.2605 62.122 46.2605C59.952 44.8505 57.4719 44.0605 55.5119 44.4005C55.2019 44.4505 54.902 44.8405 55.102 45.1805C55.982 46.6705 57.0719 48.2005 58.3219 49.5505C56.2119 48.7505 54.0619 49.9105 52.2119 51.3905C52.9419 50.1405 53.252 48.6605 52.752 47.2805C51.572 44.0805 48.782 43.8405 46.312 45.9005C46.172 46.0138 46.0286 46.1438 45.8819 46.2905C45.9719 45.4905 45.9019 44.6805 45.5819 43.8805C49.0419 41.1005 48.9919 36.2205 46.7719 32.3505C46.7186 32.2838 46.6586 32.2438 46.5919 32.2305C46.9586 31.8905 47.2953 31.4905 47.602 31.0305C48.182 34.2705 50.622 37.0805 52.792 39.0505C52.792 39.1505 52.792 39.2505 52.792 39.3505C52.7986 39.3905 52.8086 39.4272 52.8219 39.4605C51.8819 39.6505 50.922 40.0805 50.242 40.4405C48.632 41.2905 47.032 42.4405 46.002 44.1305C45.802 44.4605 46.0519 44.8905 46.3819 44.8805C49.2119 44.7005 51.942 43.7405 54.002 41.3205C54.342 40.9105 53.842 40.3605 53.482 40.7405C51.752 42.5805 49.6419 43.4605 47.4019 43.7705C48.2219 42.8105 49.262 42.0905 50.302 41.5005C51.202 40.9805 52.1719 40.6505 53.1419 40.4805C53.5819 40.4005 54.012 40.4305 54.442 40.4005C54.882 41.6905 55.852 42.6905 57.162 43.1805C57.1886 43.2072 57.2153 43.2305 57.242 43.2505C59.032 44.7605 61.162 44.5605 62.942 43.5105C62.472 44.3705 62.172 45.3005 62.122 46.2505ZM55.3919 50.7205C54.7986 50.9605 54.1986 51.1772 53.5919 51.3705C54.5719 50.7405 55.622 50.2505 56.662 50.2305C56.2353 50.3838 55.8119 50.5472 55.3919 50.7205ZM63.0819 42.4505C61.6019 43.5605 60.1419 43.6005 58.8819 43.0005C58.8719 42.8405 58.8119 42.6805 58.6419 42.6605C58.4619 42.6405 58.2919 42.6105 58.1319 42.5705C57.3819 42.0305 56.7219 41.2705 56.2119 40.3505C55.2519 38.6505 55.812 37.6505 56.992 37.1805C54.482 41.9905 62.2519 44.9505 64.8219 40.3505C65.9019 38.4005 64.5919 37.1905 62.8419 36.5005C61.6119 35.4405 59.692 34.9005 58.252 35.7605C57.222 35.8705 56.122 36.2305 55.422 37.0905C55.6086 36.5238 55.8953 35.9638 56.282 35.4105C58.522 32.2205 63.382 32.6705 65.292 35.6205C66.802 37.9405 64.9819 41.0305 63.0819 42.4505ZM61.732 39.6705C63.172 40.0905 64.0719 39.5805 64.0819 38.6605C64.4419 39.3705 63.952 40.1405 63.432 40.6905C62.042 42.1805 60.172 41.9605 58.692 41.0605C57.072 40.0805 57.122 37.8905 58.412 36.8605C59.742 36.7405 61.302 37.0005 62.472 37.4805C63.132 38.1505 63.542 39.1005 61.972 38.7405C61.442 38.6205 61.212 39.5205 61.732 39.6705ZM63.1319 45.3905C63.7019 42.5605 66.2419 41.2105 68.6319 40.2805C66.8419 42.0605 65.2819 44.1705 63.1319 45.3905ZM72.672 68.4105C73.012 71.0405 73.332 73.5605 72.912 76.2705C72.9053 76.2638 72.8986 76.2572 72.8919 76.2505C72.3919 73.7205 72.352 71.0405 72.672 68.4105ZM84.172 75.8205C84.162 78.5705 83.602 81.0305 82.912 83.6505C82.822 81.0505 83.322 78.3105 84.172 75.8205ZM92.5819 78.7905C89.4719 76.7405 86.5419 74.2505 84.8819 70.6205C84.9886 70.6472 85.0953 70.6738 85.2019 70.7005C85.5353 71.2938 85.9153 71.8538 86.3419 72.3805C86.8019 72.9405 87.472 73.8905 88.192 73.9805C88.382 74.0105 88.5719 73.8405 88.5219 73.6105C88.3719 72.9305 87.742 72.5205 87.312 72.0605C87.032 71.7605 86.7653 71.4472 86.5119 71.1205C89.6119 72.3405 92.7119 75.1505 92.5819 78.7905ZM82.5219 67.6505C82.9619 68.3705 83.6719 68.8505 84.5219 69.1405C84.5019 69.2905 84.562 69.4505 84.742 69.4805C87.462 69.9605 90.2019 69.9005 92.8919 70.4505C91.5119 70.8505 90.142 71.0705 88.782 70.8505C87.742 70.1605 86.632 69.7205 85.532 69.6705C85.402 69.5705 85.232 69.5905 85.112 69.6705C84.8986 69.6772 84.6886 69.7005 84.482 69.7405C84.342 69.4405 83.972 69.5405 83.812 69.7805C83.302 69.1005 82.662 68.5505 81.932 68.2105C82.152 68.0505 82.3486 67.8638 82.5219 67.6505ZM71.282 57.8205C71.312 57.7405 71.292 57.6705 71.282 57.6005C71.3153 57.6205 71.3453 57.6372 71.372 57.6505C71.3853 57.9372 71.3953 58.2238 71.4019 58.5105C71.3286 58.5572 71.272 58.6338 71.232 58.7405C70.472 61.1805 69.4619 63.9405 69.9519 66.4805C70.0419 66.9005 70.572 66.7605 70.602 66.3605C70.752 64.4905 71.052 62.7405 71.432 60.9605C71.362 64.7705 70.812 68.5305 69.222 72.1205C67.982 67.6105 69.602 62.1105 71.282 57.8205ZM73.0819 36.3905C73.1153 35.5238 73.0753 34.6438 72.9619 33.7505C73.7419 30.8805 75.3419 28.2105 77.0919 25.8405C77.1219 29.9605 75.3019 33.2105 73.0819 36.3905ZM77.282 33.0105C78.552 31.5805 79.852 30.0905 81.562 29.6005C81.072 30.8405 79.4419 31.7305 78.5219 32.3105C78.1153 32.5572 77.702 32.7905 77.282 33.0105ZM88.662 32.4905C88.602 34.6205 87.492 36.2605 86.302 37.8905C86.142 37.9572 85.9853 38.0305 85.8319 38.1105C85.8586 37.6705 85.8286 37.2605 85.742 36.8805C86.322 35.1505 87.302 33.6605 88.662 32.4905ZM84.5719 40.5905C84.6119 40.7605 84.7819 40.8505 84.9519 40.8205C84.9819 41.1705 84.952 41.5605 84.922 41.9505C84.7686 41.9172 84.6186 41.8905 84.472 41.8705C84.2453 41.8638 84.0153 41.8738 83.782 41.9005C84.0353 41.4405 84.2986 41.0038 84.5719 40.5905ZM79.3219 41.3605C79.7719 40.4805 80.742 39.9305 81.562 39.6205C82.372 39.3005 83.3519 39.1605 84.1319 39.5305C83.5319 40.2705 83.052 41.1505 82.802 42.0705C82.7153 42.0905 82.6286 42.1105 82.542 42.1305C82.5353 42.1305 82.532 42.1305 82.532 42.1305C81.622 42.0905 80.5219 42.4505 79.4519 43.0705C79.1319 42.6005 78.9819 42.0205 79.3219 41.3605ZM83.552 61.6405C81.212 62.4005 80.312 60.6505 80.192 58.5905C80.2787 58.5372 80.3653 58.4738 80.4519 58.4005C80.6519 58.2305 80.472 57.9305 80.282 57.9305C80.2486 57.9238 80.2153 57.9238 80.182 57.9305C80.1886 57.5438 80.2186 57.1638 80.2719 56.7905C80.3219 56.3905 79.7119 56.3305 79.6419 56.7305C79.5619 57.1372 79.5053 57.5372 79.472 57.9305C78.822 57.9505 78.212 57.9705 77.532 57.6005C76.692 57.1405 76.112 56.2605 75.682 55.3505C74.892 53.7105 74.7919 51.5005 75.6519 49.7805C75.9119 50.3705 76.382 50.9205 77.112 51.3905C77.362 51.5505 77.6519 51.2105 77.5119 50.9505C77.0319 49.9605 76.412 49.2005 76.432 47.9805C76.452 46.9305 77.202 45.9805 77.852 45.2805C78.252 44.8405 78.742 44.4805 79.252 44.1405C79.4187 44.3072 79.5953 44.4572 79.782 44.5905C79.7953 44.5972 79.8086 44.6038 79.8219 44.6105C79.6819 44.9572 79.5953 45.3372 79.562 45.7505C79.052 46.5005 78.962 47.5305 79.672 48.8805C79.902 49.3305 80.522 48.9005 80.302 48.4605C79.972 47.7705 79.892 47.2105 79.992 46.7605C80.0453 46.7205 80.082 46.6672 80.102 46.6005C80.1553 46.4472 80.2086 46.3005 80.2619 46.1605C81.1819 44.8905 83.9719 44.9505 85.2719 45.6905C87.1419 46.7505 87.492 49.9705 86.672 52.0505C86.6586 52.0772 86.642 52.1038 86.622 52.1305C86.842 51.5205 86.592 50.5805 86.162 49.9105C85.222 48.4605 83.1219 48.4805 82.1319 50.1105C80.9019 52.1405 82.412 53.7205 84.032 54.3605C85.602 54.9705 86.932 53.7205 87.542 52.1405C88.282 50.2305 87.992 47.6405 86.922 46.1005C85.742 44.4005 82.7919 43.9305 80.8819 44.7205C81.3219 43.9205 81.882 43.3505 82.622 43.0405C82.6153 43.0672 82.6086 43.0905 82.602 43.1105C82.572 43.3805 82.9019 43.4105 83.0219 43.2205C83.0953 43.1005 83.1653 42.9805 83.232 42.8605C83.6653 42.7738 84.1653 42.7672 84.732 42.8405C84.8186 42.8605 84.9053 42.8805 84.992 42.9005C85.082 43.0405 85.2419 43.0805 85.3919 42.9905C87.3419 43.5305 88.9419 45.1905 89.5919 47.2905C90.9219 51.5605 87.392 56.8805 83.252 56.3205C79.242 55.7705 78.512 50.1505 77.802 46.6005C77.712 46.1505 77.102 46.3605 77.182 46.8105C78.032 51.5805 79.0419 57.4305 84.4619 57.3505C84.9953 57.3372 85.4986 57.2438 85.972 57.0705C85.802 58.1305 85.942 58.9905 86.312 59.6105C85.742 60.5805 84.502 61.3405 83.552 61.6405ZM84.162 50.0705C82.992 51.2805 84.052 52.5405 85.242 52.7405C85.902 52.8505 86.282 52.6805 86.502 52.3805C85.162 54.7705 81.382 52.5705 82.932 50.4705C84.032 48.9905 85.3019 50.1605 85.8919 51.3105C86.2319 51.9805 85.3719 51.7605 85.1419 51.7005C84.5719 51.5505 84.372 51.1305 84.722 50.5405C84.952 50.1305 84.462 49.7605 84.162 50.0705ZM90.102 59.4405C89.002 60.2005 87.942 60.0705 87.302 59.3905C87.582 58.5105 87.472 57.5705 86.782 56.6805C88.062 55.9405 89.072 54.6205 89.732 53.1005C89.892 53.1805 90.0453 53.2738 90.192 53.3805C89.842 53.5005 89.832 54.1205 90.242 54.0905C90.462 54.0638 90.6819 54.0338 90.9019 54.0005C92.2619 55.5205 92.242 57.9605 90.102 59.4405ZM91.5119 53.0705C91.0919 52.7305 90.5819 52.5205 89.9619 52.5005C90.5619 50.8505 90.7819 49.0405 90.5219 47.4905C90.0919 44.9505 88.0719 42.9005 85.8219 42.1605C86.0019 41.5105 85.952 40.7705 85.732 40.1205C86.152 39.6872 86.5553 39.2205 86.942 38.7205C87.202 38.6605 87.482 38.6305 87.782 38.6305C89.872 38.6805 91.6719 40.5705 92.8819 42.2105C94.1919 44.0205 95.192 46.4005 95.122 48.8405C95.042 51.2605 93.3719 52.5205 91.5119 53.0705ZM94.542 54.8505C94.7153 54.8572 94.8753 54.8772 95.0219 54.9105C95.5319 55.0205 95.7619 54.1505 95.2619 54.0205C94.7819 53.9072 94.2986 53.8205 93.812 53.7605C93.692 53.7472 93.5719 53.7305 93.4519 53.7105C95.4619 52.7105 98.482 53.3005 100.002 54.6305C98.462 56.1405 96.412 55.5505 94.542 54.8505Z" fill="#646775"/>
<path fill-rule="evenodd" clip-rule="evenodd" d="M75.7718 22.2404C74.4018 21.8904 73.8318 24.0804 75.2018 24.4404C76.5618 24.8004 77.1418 22.6004 75.7718 22.2404Z" fill="#646775"/>
<path fill-rule="evenodd" clip-rule="evenodd" d="M72.812 21.1504C72.752 21.1304 72.722 21.2404 72.792 21.2504C72.852 21.2704 72.882 21.1704 72.812 21.1504Z" fill="#646775"/>
<path fill-rule="evenodd" clip-rule="evenodd" d="M75.332 18.6004C74.332 18.3404 73.912 19.9504 74.912 20.2104C75.912 20.4704 76.332 18.8604 75.332 18.6004Z" fill="#646775"/>
<path fill-rule="evenodd" clip-rule="evenodd" d="M74.172 15.9605C73.252 15.7205 72.862 17.2105 73.782 17.4505C74.702 17.6905 75.092 16.2005 74.172 15.9605Z" fill="#646775"/>
<path fill-rule="evenodd" clip-rule="evenodd" d="M70.4518 19.5505C69.2518 19.2405 68.7418 21.1805 69.9518 21.4905C71.1618 21.8105 71.6618 19.8705 70.4518 19.5505Z" fill="#646775"/>
<path fill-rule="evenodd" clip-rule="evenodd" d="M73.0819 18.3505C72.4719 18.1905 72.2219 19.1705 72.8319 19.3305C73.4419 19.4905 73.6919 18.5105 73.0819 18.3505Z" fill="#646775"/>
<path fill-rule="evenodd" clip-rule="evenodd" d="M77.2719 7.61046C75.7419 7.21046 75.1019 9.67047 76.6319 10.0705C78.1719 10.4705 78.8119 8.01046 77.2719 7.61046Z" fill="#646775"/>
<path fill-rule="evenodd" clip-rule="evenodd" d="M102.262 73.3105C100.312 72.8005 99.5019 75.9305 101.442 76.4305C103.392 76.9405 104.202 73.8105 102.262 73.3105Z" fill="#646775"/>
<path fill-rule="evenodd" clip-rule="evenodd" d="M97.3319 67.3605C95.5419 66.8905 94.7919 69.7605 96.5819 70.2305C98.3719 70.7005 99.1219 67.8205 97.3319 67.3605Z" fill="#646775"/>
<path fill-rule="evenodd" clip-rule="evenodd" d="M96.0919 64.9904C94.7319 64.6404 94.1519 66.8305 95.5219 67.1905C96.8919 67.5505 97.4619 65.3504 96.0919 64.9904Z" fill="#646775"/>
<path fill-rule="evenodd" clip-rule="evenodd" d="M100.642 68.8705C99.0519 68.4505 98.382 71.0105 99.972 71.4305C101.562 71.8405 102.232 69.2805 100.642 68.8705Z" fill="#646775"/>
<path fill-rule="evenodd" clip-rule="evenodd" d="M101.942 63.8804C100.292 63.4404 99.602 66.1004 101.252 66.5304C102.902 66.9604 103.592 64.3104 101.942 63.8804Z" fill="#646775"/>
<path fill-rule="evenodd" clip-rule="evenodd" d="M102.132 61.5404C101.452 61.9604 101.312 62.9504 101.872 63.5204C102.372 64.0404 103.452 64.0004 103.782 63.2404C104.252 62.1604 103.282 60.8404 102.132 61.5404Z" fill="#646775"/>
<path fill-rule="evenodd" clip-rule="evenodd" d="M105.912 69.9705C105.122 69.7705 104.792 71.0305 105.572 71.2405C106.362 71.4405 106.692 70.1805 105.912 69.9705Z" fill="#646775"/>
<path fill-rule="evenodd" clip-rule="evenodd" d="M112.322 70.2505C111.022 69.9105 110.472 71.9905 111.772 72.3305C113.072 72.6705 113.612 70.5905 112.322 70.2505Z" fill="#646775"/>
<path fill-rule="evenodd" clip-rule="evenodd" d="M115.712 71.4204C114.752 71.1704 114.342 72.7204 115.312 72.9704C116.272 73.2204 116.682 71.6704 115.712 71.4204Z" fill="#646775"/>
<path fill-rule="evenodd" clip-rule="evenodd" d="M100.322 82.5204C99.072 82.2004 98.5421 84.2005 99.7921 84.5305C101.042 84.8505 101.562 82.8504 100.322 82.5204Z" fill="#646775"/>
<path fill-rule="evenodd" clip-rule="evenodd" d="M94.572 85.0105C92.932 84.5805 92.2421 87.2205 93.8921 87.6505C95.5321 88.0805 96.222 85.4405 94.572 85.0105Z" fill="#646775"/>
<path fill-rule="evenodd" clip-rule="evenodd" d="M91.8119 93.8105C91.2019 93.6505 90.9519 94.6405 91.5619 94.7905C92.1719 94.9505 92.4219 93.9705 91.8119 93.8105Z" fill="#646775"/>
<path fill-rule="evenodd" clip-rule="evenodd" d="M98.3819 95.2704C98.0319 95.1804 97.8819 95.7404 98.2319 95.8304C98.5919 95.9304 98.7319 95.3604 98.3819 95.2704Z" fill="#646775"/>
<path fill-rule="evenodd" clip-rule="evenodd" d="M103.002 97.0705C102.232 96.8705 101.902 98.1205 102.682 98.3205C103.452 98.5205 103.782 97.2705 103.002 97.0705Z" fill="#646775"/>
<path fill-rule="evenodd" clip-rule="evenodd" d="M109.702 83.8004C108.212 83.4104 107.582 85.8104 109.082 86.2004C110.572 86.5904 111.202 84.1904 109.702 83.8004Z" fill="#646775"/>
<path fill-rule="evenodd" clip-rule="evenodd" d="M111.842 102.22C110.462 101.85 109.882 104.08 111.262 104.44C112.652 104.8 113.232 102.57 111.842 102.22Z" fill="#646775"/>
<path fill-rule="evenodd" clip-rule="evenodd" d="M114.692 48.7405C113.342 48.3905 112.782 50.5605 114.122 50.9105C115.472 51.2605 116.032 49.0905 114.692 48.7405Z" fill="#646775"/>
<path fill-rule="evenodd" clip-rule="evenodd" d="M18.4618 78.6305C17.6818 78.4205 17.1218 78.9505 16.9518 79.5805C16.2818 79.7005 15.8418 80.4405 16.2018 81.0905C16.2218 81.1105 16.2418 81.1271 16.2618 81.1405C15.1918 81.4505 14.9219 83.2905 16.2319 83.6305C17.5519 83.9705 18.2019 82.2505 17.4419 81.4605C17.5752 81.4005 17.6952 81.3105 17.8019 81.1905C19.3919 81.6105 20.0618 79.0505 18.4618 78.6305Z" fill="#646775"/>
<path fill-rule="evenodd" clip-rule="evenodd" d="M14.1519 75.6605C12.6419 75.2705 12.0119 77.6805 13.5219 78.0805C15.0219 78.4705 15.6519 76.0505 14.1519 75.6605Z" fill="#646775"/>
<path fill-rule="evenodd" clip-rule="evenodd" d="M17.3718 72.9705C17.7618 72.5605 17.7618 71.7505 17.0718 71.5705C16.2118 71.3505 15.7918 72.4705 16.2918 72.9705C15.2618 73.4705 15.0518 75.3305 16.4518 75.6905C18.1318 76.1305 18.8518 73.5905 17.3718 72.9705Z" fill="#646775"/>
<path fill-rule="evenodd" clip-rule="evenodd" d="M19.862 69.7204C18.662 69.4104 18.152 71.3504 19.362 71.6604C20.562 71.9804 21.072 70.0404 19.862 69.7204Z" fill="#646775"/>
<path fill-rule="evenodd" clip-rule="evenodd" d="M12.9318 69.6605C11.5318 69.3005 10.9418 71.5605 12.3418 71.9305C13.7518 72.2905 14.3418 70.0305 12.9318 69.6605Z" fill="#646775"/>
<path fill-rule="evenodd" clip-rule="evenodd" d="M9.27205 71.3005C9.20205 71.2805 9.18208 71.3805 9.24208 71.4005C9.30208 71.4205 9.33205 71.3205 9.27205 71.3005Z" fill="#646775"/>
<path fill-rule="evenodd" clip-rule="evenodd" d="M8.35194 78.3604C7.29194 78.0904 6.84193 79.7904 7.90193 80.0704C8.97193 80.3504 9.41194 78.6404 8.35194 78.3604Z" fill="#646775"/>
<path fill-rule="evenodd" clip-rule="evenodd" d="M13.182 82.9004C11.462 82.4504 10.742 85.2205 12.462 85.6705C14.182 86.1205 14.902 83.3504 13.182 82.9004Z" fill="#646775"/>
<path fill-rule="evenodd" clip-rule="evenodd" d="M3.80188 70.9404C2.19188 70.5204 1.52184 73.1204 3.13184 73.5404C4.74184 73.9604 5.42188 71.3604 3.80188 70.9404Z" fill="#646775"/>
<path fill-rule="evenodd" clip-rule="evenodd" d="M1.56201 72.4405C1.25201 72.3505 1.11201 72.8605 1.43201 72.9405C1.74201 73.0205 1.88201 72.5205 1.56201 72.4405Z" fill="#646775"/>
<path fill-rule="evenodd" clip-rule="evenodd" d="M9.36193 86.9005C7.87193 86.5105 7.24194 88.9105 8.74194 89.3005C10.2319 89.6905 10.8619 87.2905 9.36193 86.9005Z" fill="#646775"/>
<path fill-rule="evenodd" clip-rule="evenodd" d="M1.76204 85.8804C1.41204 85.7904 1.26208 86.3005 1.56208 86.4405L1.40205 87.0605C1.38205 87.1305 1.48208 87.1505 1.49208 87.0905L1.66206 86.4705C1.98206 86.4905 2.11204 85.9704 1.76204 85.8804Z" fill="#646775"/>
<path fill-rule="evenodd" clip-rule="evenodd" d="M7.5719 95.5605C6.0819 95.1805 5.46196 97.5605 6.94196 97.9505C8.43196 98.3405 9.0519 95.9505 7.5719 95.5605Z" fill="#646775"/>
<path fill-rule="evenodd" clip-rule="evenodd" d="M1.96187 93.9905C0.90187 93.7205 0.461858 95.4105 1.51186 95.6805C2.57186 95.9505 3.01187 94.2605 1.96187 93.9905Z" fill="#646775"/>
<path fill-rule="evenodd" clip-rule="evenodd" d="M21.4919 90.0505C21.4119 89.8305 21.3119 89.6805 21.1719 89.5005C20.7519 88.9505 19.8719 89.3304 19.7119 89.9304C19.5619 90.5204 20.1419 91.2805 20.7819 91.0005C20.9819 90.9105 21.1519 90.8405 21.3219 90.6905C21.4919 90.5505 21.5619 90.2405 21.4919 90.0505Z" fill="#646775"/>
<path fill-rule="evenodd" clip-rule="evenodd" d="M23.3619 91.8005C22.7519 91.6305 22.5019 92.6105 23.1119 92.7705C23.7219 92.9305 23.9719 91.9505 23.3619 91.8005Z" fill="#646775"/>
<path fill-rule="evenodd" clip-rule="evenodd" d="M16.552 89.5305C15.372 89.2205 14.872 91.1205 16.052 91.4205C17.232 91.7305 17.732 89.8305 16.552 89.5305Z" fill="#646775"/>
<path fill-rule="evenodd" clip-rule="evenodd" d="M0.691946 88.2005C-0.00805408 88.0205 -0.298093 89.1405 0.401907 89.3205C1.09191 89.5005 1.39195 88.3805 0.691946 88.2005Z" fill="#646775"/>
<path fill-rule="evenodd" clip-rule="evenodd" d="M22.8819 82.9905C21.6719 82.6805 21.1719 84.6205 22.3719 84.9305C23.5819 85.2505 24.0919 83.3105 22.8819 82.9905Z" fill="#646775"/>
<path fill-rule="evenodd" clip-rule="evenodd" d="M60.972 9.79046C59.662 9.45046 59.112 11.5505 60.422 11.8905C61.722 12.2305 62.272 10.1305 60.972 9.79046Z" fill="#646775"/>
<path fill-rule="evenodd" clip-rule="evenodd" d="M65.152 15.0404C63.662 14.6504 63.0319 17.0504 64.5219 17.4404C66.0219 17.8304 66.642 15.4304 65.152 15.0404Z" fill="#646775"/>
<path fill-rule="evenodd" clip-rule="evenodd" d="M68.142 0.040456C66.722 -0.329544 66.132 1.95046 67.542 2.32046C68.962 2.69046 69.562 0.410456 68.142 0.040456Z" fill="#646775"/>
<path fill-rule="evenodd" clip-rule="evenodd" d="M87.1919 21.0704C86.5819 20.9104 86.3219 21.8904 86.9319 22.0504C87.5419 22.2104 87.8019 21.2304 87.1919 21.0704Z" fill="#646775"/>
<path fill-rule="evenodd" clip-rule="evenodd" d="M93.2221 24.5805C92.6321 24.4305 92.3821 25.3805 92.9721 25.5305C93.5621 25.6805 93.8021 24.7305 93.2221 24.5805Z" fill="#646775"/>
</svg>
