<svg width="103" height="104" viewBox="0 0 103 104" fill="none" xmlns="http://www.w3.org/2000/svg">
<path d="M24.1088 69.8546C26.4285 73.1627 28.6247 76.5145 30.7336 79.9118C48.6155 50.3946 71.3075 24.138 97.4818 2.4999C99.5417 0.86684 102.254 3.60259 100.359 5.68219C73.6145 32.2486 52.1704 63.7142 37.3549 97.706C35.7745 101.331 31.562 102.986 27.9489 101.4C26.2704 100.677 25.1115 99.3974 24.3086 97.881C20.8427 90.9167 17.0661 83.9507 12.9299 77.3966C10.9353 74.2581 8.78094 71.0831 6.44308 68.2872C5.33137 66.9694 4.0598 65.5879 2.74282 64.6346C2.74282 64.6346 -0.13452 60.6176 5.43676 57.1947C11.008 53.7719 13.5711 57.1947 13.5711 57.1947C17.6329 61.0095 20.9299 65.391 24.1088 69.8546Z" fill="#706155" stroke="#FFFEF7" stroke-width="4"/>
</svg>
