<svg width="104" height="85" viewBox="0 0 104 85" fill="none" xmlns="http://www.w3.org/2000/svg">
<path d="M101.433 78.0132C101.42 77.8198 101.343 77.6732 101.203 77.5732C101.373 77.2232 101.333 76.7732 101.063 76.4932C98.4728 69.5632 95.5728 62.6932 92.8028 55.8332C92.6828 55.5232 92.4228 55.3832 92.1628 55.3432C92.2095 55.2965 92.2428 55.2265 92.2628 55.1332C94.3428 41.8732 93.2428 27.3632 92.4028 14.0032C92.3728 13.5932 92.1128 13.3332 91.7928 13.2432C91.9128 12.7332 91.6428 12.1232 90.9728 12.1132C74.9428 11.7632 59.1028 14.1632 43.0728 12.7532C40.8328 7.98316 36.5228 4.01318 31.3728 1.86318C21.3528 -2.29682 9.25284 0.573181 3.18284 9.83318C-2.81716 18.9932 -0.0871553 31.4932 9.29284 37.1432C13.4128 39.6232 18.6128 41.1432 23.6228 41.1332C23.4695 41.2532 23.3862 41.4365 23.3728 41.6832C23.1628 46.4932 23.2628 51.3832 23.9828 56.1532C24.0028 56.2532 24.0462 56.3332 24.1128 56.3932C24.0428 56.7432 24.2128 57.1232 24.6228 57.2332C21.1728 64.0332 17.5628 70.6832 13.2028 76.9532C13.1095 77.0932 13.0662 77.2398 13.0728 77.3932C12.9528 77.4032 12.8528 77.4732 12.8228 77.6032C12.5928 78.6832 12.4928 79.9032 12.5628 81.0132C12.5828 81.1865 12.6428 81.3165 12.7428 81.4032C12.6228 81.6632 12.7428 82.0132 13.1128 82.0132C41.9928 82.1932 70.8928 81.0332 99.7828 81.1932C100.263 81.1932 100.523 80.8632 100.573 80.4932C101.083 79.8032 101.463 78.8732 101.433 78.0132ZM90.7328 13.8932C90.7262 13.9265 90.7195 13.9632 90.7128 14.0032C91.0128 20.8332 91.2628 27.6632 91.2928 34.5032C91.3228 41.2832 90.7528 48.1532 91.2128 54.9132C80.2128 54.5932 69.1228 55.1232 58.1228 55.2732C47.1028 55.4132 36.0228 55.2132 25.0228 55.8032C24.9628 51.0932 24.8128 46.4032 24.9228 41.6832C24.9162 41.4165 24.8328 41.2232 24.6728 41.1032C25.2928 41.0698 25.9095 41.0132 26.5228 40.9332C26.0128 43.8932 26.1128 47.0632 26.4128 50.0232C26.4328 50.1898 26.4995 50.3132 26.6128 50.3932C26.5528 50.6932 26.7128 51.0332 27.1228 51.0332C47.3028 51.2632 67.6028 50.1232 87.7728 49.5032C88.4528 49.4832 88.6928 48.8032 88.4928 48.3232C88.4528 38.1632 89.3628 28.0132 89.3228 17.8932C89.6828 17.4332 89.5028 16.5932 88.7628 16.6432C73.9828 17.6832 59.2828 17.1332 44.5028 17.4632C44.3228 16.3032 44.0262 15.1698 43.6128 14.0632C59.1228 16.8432 75.1028 13.5932 90.7328 13.8932ZM44.6128 18.3432C59.0928 19.9532 74.1328 19.1132 88.6228 18.1732C86.5028 27.6332 86.5528 38.2332 87.1628 47.8832C67.2828 48.4432 47.2628 48.5232 27.4228 49.9132C27.3628 46.9132 27.3928 43.8432 27.0828 40.8532C31.8828 40.0932 36.2128 37.7032 38.8328 33.0732C43.8528 35.0132 49.1528 35.0532 54.3028 33.4232C54.6928 33.2932 54.9628 32.8832 54.8428 32.4732C54.3828 30.8832 52.6628 31.0732 51.2828 30.7532C48.1828 30.0332 45.7428 28.4332 43.2528 26.5532C44.4928 23.8032 44.8828 21.0132 44.6128 18.3432ZM10.2028 35.6032C1.15284 30.0732 -0.877156 18.0932 5.50284 9.72317C11.3928 1.98317 21.7228 -0.116815 30.5628 3.49318C39.8728 7.29318 46.0428 16.9732 41.9328 26.8832C41.8328 27.1332 41.9728 27.3432 42.1728 27.4532C42.1862 27.4798 42.2028 27.5065 42.2228 27.5332C43.6828 29.1132 45.5328 30.2732 47.4928 31.1432C48.0828 31.4032 50.7528 31.9232 52.2828 32.3832C47.7628 33.5132 43.2628 33.2532 38.7628 31.8532C38.4128 31.5632 37.8528 31.5332 37.5428 32.0332C31.6928 41.4432 18.7928 40.8632 10.2028 35.6032ZM25.8228 57.2932C36.5728 57.5732 47.3728 57.1232 58.1228 57.0032C69.2128 56.8732 80.3828 57.1432 91.4528 56.5332C91.4662 56.5332 91.4795 56.5332 91.4928 56.5332C93.8328 63.1932 96.5128 69.9432 99.7328 76.2532C71.6928 76.3665 43.6495 76.4565 15.6028 76.5232C19.7028 70.4832 23.2628 64.1532 25.8228 57.2932ZM13.6528 81.1132C13.6595 81.0798 13.6662 81.0465 13.6728 81.0132C13.7328 80.0832 13.6728 79.0832 13.5128 78.1332C13.6462 78.2198 13.7962 78.2665 13.9628 78.2732C42.7028 78.1665 71.4428 78.0865 100.183 78.0332C100.05 78.5265 99.9262 79.0198 99.8128 79.5132C99.8062 79.5065 99.7962 79.5032 99.7828 79.5032C71.1628 79.4532 42.2228 79.1432 13.6528 81.1132Z" fill="#171615"/>
<path d="M35.7928 16.0532C26.3428 14.9332 15.9428 15.1032 6.44283 15.5932C5.91283 15.6232 5.93283 16.3432 6.44283 16.4032C15.8928 17.4332 26.3128 18.1332 35.7928 17.4532C36.7128 17.3932 36.6828 16.1532 35.7928 16.0532Z" fill="#171615"/>
<path d="M35.7529 26.0332C26.7329 25.0032 16.8129 24.4832 7.79286 25.8132C7.21286 25.8932 7.42286 26.7032 7.92286 26.7532C17.1329 27.7232 26.4929 26.7533 35.7529 27.8033C36.8829 27.9233 36.8729 26.1532 35.7529 26.0332Z" fill="#171615"/>
<path d="M65.7528 70.0432C66.0128 69.6232 65.6728 69.1032 65.2028 69.0932C62.5628 69.0466 59.9228 69.0199 57.2828 69.0132C55.8628 69.0066 54.4428 69.0032 53.0228 69.0032C52.0028 68.9932 50.2628 68.6232 49.3728 69.0132C47.2528 69.9332 48.7028 71.7132 49.4628 73.6732C49.2128 73.9332 49.3128 74.4732 49.7828 74.4932C54.6628 74.6832 59.5728 74.7532 64.4528 74.6432C65.1528 74.6232 65.2428 73.7032 64.7228 73.4532C64.6495 72.1999 64.9928 71.0632 65.7528 70.0432ZM50.2628 73.5232C50.0828 72.7832 49.8862 72.0466 49.6728 71.3132C48.9728 70.1932 49.2762 69.8199 50.5828 70.1932C51.8328 69.7632 54.1328 70.2532 55.4628 70.2732C58.3628 70.3199 61.2628 70.3466 64.1628 70.3532C63.7228 71.3032 63.5228 72.2632 63.4928 73.3732C59.0795 73.2999 54.6695 73.3499 50.2628 73.5232Z" fill="#171615"/>
<path d="M91.4229 64.1833C69.6229 65.7533 47.9529 65.5433 26.1229 65.7433C25.5729 65.7433 25.5929 66.5432 26.1229 66.5932C47.7229 68.4432 69.8529 67.4233 91.4229 65.7033C92.3829 65.6233 92.4029 64.1133 91.4229 64.1833Z" fill="#171615"/>
<path d="M88.9228 58.5632C88.6828 58.3132 88.3628 58.3632 88.1528 58.5332C88.1395 58.5332 88.1262 58.5332 88.1128 58.5332C68.4528 58.8332 48.6028 58.6532 28.9628 59.5232C28.7928 59.4332 28.5728 59.4332 28.3828 59.6232C27.5728 60.4332 27.1428 61.7432 26.6228 62.7632C26.2128 63.5832 25.4328 64.5832 25.6828 65.5332C25.7128 65.6832 25.9128 65.8132 26.0628 65.7532C26.9928 65.3832 27.3228 64.2532 27.7528 63.4232C28.2228 62.5132 28.9328 61.4932 29.2128 60.4832C48.5828 61.8932 68.7528 61.2632 88.1128 60.0732C88.2595 60.0599 88.3828 60.0199 88.4828 59.9532C88.8128 60.3932 89.1628 60.8132 89.4528 61.2832C89.9128 62.0632 90.2828 62.8832 90.5628 63.7432C90.6528 64.0032 91.0228 63.8932 90.9728 63.6232C90.6828 61.9632 90.1328 59.8132 88.9228 58.5632Z" fill="#171615"/>
<path d="M92.4628 66.9832C90.4928 66.9632 88.4028 67.2932 86.4428 67.5532C85.9828 67.6132 85.9528 68.3032 86.4428 68.2932C88.4628 68.2732 90.6128 68.3032 92.6028 67.9932C93.1928 67.9032 93.0328 66.9832 92.4628 66.9832Z" fill="#171615"/>
<path d="M92.9928 68.5732C91.6728 68.8032 90.4728 68.9732 89.1228 68.9232C88.6828 68.9132 88.5628 69.6232 89.0128 69.7132C90.3528 69.9732 91.9628 69.9832 93.2628 69.5332C93.8828 69.3232 93.6328 68.4532 92.9928 68.5732Z" fill="#171615"/>
<path d="M26.7829 74.5832C24.9029 74.5632 23.0029 74.6532 21.1229 74.6932C20.7029 74.7032 20.7029 75.3232 21.1229 75.3332C23.0029 75.3732 24.9029 75.4732 26.7829 75.4432C27.3329 75.4332 27.3429 74.5932 26.7829 74.5832Z" fill="#171615"/>
<path d="M28.4529 73.3032C26.7129 73.1632 24.8729 73.3932 23.1229 73.4332C22.7929 73.4332 22.7929 73.9232 23.1229 73.9332C24.8729 73.9632 26.7129 74.2032 28.4529 74.0632C28.9429 74.0232 28.9429 73.3432 28.4529 73.3032Z" fill="#171615"/>
<path d="M36.9228 38.6731C36.2328 39.1231 35.6628 39.7131 34.9128 40.0831C34.0328 40.5231 33.0928 40.7331 32.1228 40.7631C31.7428 40.7731 31.7428 41.3231 32.1228 41.3331C33.9428 41.4131 36.3928 40.8331 37.4828 39.2331C37.7128 38.8931 37.2628 38.4631 36.9228 38.6731Z" fill="#171615"/>
<path d="M39.1529 39.7132C38.1929 40.7032 37.0229 41.3532 35.7229 41.7832C35.4229 41.8832 35.5429 42.3432 35.8529 42.2632C37.2429 41.8732 38.4929 41.2032 39.6629 40.3732C40.1629 40.0132 39.5729 39.2832 39.1529 39.7132Z" fill="#171615"/>
<path d="M17.8929 4.33315C15.2229 3.69315 11.9329 5.03316 10.0329 6.90316C9.71287 7.21316 10.1329 7.80314 10.5129 7.53314C11.5829 6.75314 12.6529 6.08316 13.9229 5.68316C15.2129 5.28316 16.4629 5.32315 17.7729 5.20315C18.2529 5.16315 18.4229 4.45315 17.8929 4.33315Z" fill="#171615"/>
<path d="M19.3329 5.59322C17.6629 5.93322 16.0129 6.55323 14.3729 7.04323C13.9229 7.18323 14.1029 7.86322 14.5629 7.75322C16.2229 7.33322 17.9529 7.02324 19.5729 6.45324C20.1129 6.27324 19.9029 5.48322 19.3329 5.59322Z" fill="#171615"/>
<path d="M85.7829 20.1832C83.9029 20.2232 82.0029 20.5132 80.1229 20.6832C79.6529 20.7332 79.6329 21.4532 80.1229 21.4332C82.0029 21.3632 83.9229 21.3832 85.7829 21.1832C86.4129 21.1132 86.4429 20.1632 85.7829 20.1832Z" fill="#171615"/>
<path d="M86.7829 21.5131C85.6729 21.6031 84.5629 21.5931 83.4529 21.6031C82.9229 21.6031 82.9229 22.4231 83.4529 22.4231C84.5629 22.4331 85.6729 22.4231 86.7829 22.5131C87.4229 22.5631 87.4329 21.4631 86.7829 21.5131Z" fill="#171615"/>
</svg>
