<?xml version="1.0" encoding="utf-8"?>
<!-- Generator: Adobe Illustrator 24.3.0, SVG Export Plug-In . SVG Version: 6.00 Build 0)  -->
<svg version="1.1" xmlns="http://www.w3.org/2000/svg" xmlns:xlink="http://www.w3.org/1999/xlink" x="0px" y="0px"
	 viewBox="0 0 1621.47 964.07" style="enable-background:new 0 0 1621.47 964.07;" xml:space="preserve">
<style type="text/css">
	.st0{display:none;}
	.st1{display:inline;fill:#fffef7;}
	.st2{fill:#706155;}
</style>
<g id="background" class="st0">
	<rect class="st1" width="1621.47" height="964.07"/>
</g>
<g id="elements">
	<g>
		<path class="st2" d="M434.26,137.64c0.53,1.04,1.58,1.64,2.67,1.64c0.28,0,0.56-0.05,0.84-0.14l155.71,59.3
			c0.34,0.13,0.71,0.2,1.07,0.2c0.47,0,0.93-0.11,1.35-0.32c0.23-0.12,0.44-0.27,0.63-0.44c0.06-0.01,0.12-0.04,0.18-0.06
			c0.09-0.03,0.19-0.05,0.28-0.08c0.09-0.03,0.17-0.08,0.25-0.12c0.1-0.05,0.19-0.09,0.28-0.15c0.07-0.05,0.14-0.1,0.21-0.15
			c0.09-0.07,0.18-0.14,0.26-0.22c0.02-0.02,0.05-0.04,0.07-0.06c0.04-0.04,0.07-0.09,0.11-0.13c0.07-0.08,0.14-0.16,0.2-0.25
			c0.05-0.08,0.1-0.16,0.15-0.24c0.05-0.09,0.09-0.17,0.13-0.26c0.04-0.09,0.07-0.18,0.1-0.27c0.03-0.09,0.06-0.19,0.08-0.28
			c0.02-0.1,0.03-0.19,0.05-0.29c0.01-0.09,0.02-0.19,0.02-0.29c0-0.11,0-0.21-0.01-0.32c0-0.06,0-0.11-0.01-0.17l-0.31-2.15
			l43.66-157.57l0.3-0.15c1.48-0.75,2.06-2.56,1.31-4.04c-0.14-0.28-0.34-0.52-0.55-0.73c-0.17-1.03-0.87-1.94-1.91-2.32
			L571.09,1.76c-0.54-1.18-1.79-1.92-3.14-1.73c-0.55,0.08-1.03,0.31-1.43,0.63c-0.21,0.05-0.41,0.13-0.6,0.23l-112,57.46
			c-0.77,0.39-1.33,1.1-1.54,1.94l-18.79,74.43c-0.23,0.9-0.02,1.81,0.5,2.51C434.14,137.37,434.19,137.5,434.26,137.64z M566,7.59
			l7.54,52.6l-54.79-28.36L566,7.59z M574.84,69.21l16.86,117.53l-85.71-82.36L574.84,69.21z M502.47,99.43l11.94-63.1l55.43,28.7
			L502.47,99.43z M572.2,8.55l62.97,23.11l-55.58,28.39L572.2,8.55z M497.05,95.79l-35.84-34.44l46.91-24.07L497.05,95.79z
			 M499.1,107.89c0.45-0.11,0.86-0.32,1.21-0.62l0.03-0.02l84.96,81.64l-140.24-53.41L499.1,107.89z M596.44,177.56L580.49,66.32
			l54.49-27.83L596.44,177.56z M457.18,65.79l38.54,37.04l-0.01,0.06l-54.98,28.08L457.18,65.79z"/>
		<path class="st2" d="M1621.19,492.44c-0.7-1.5-2.48-2.16-3.98-1.46c-68.24,31.6-113.55,8.72-153.54-11.46
			c-35.57-17.96-69.17-34.92-110.95-8.29c-2.38,1.52-4.63,3.12-6.74,4.78c-47.58-25.48-100.14-25.04-144.48,1.29
			c-16.14,9.57-29.83,21.2-40.72,34.58c-22.06-7.47-44.23-10.79-65.97-9.91c-8.59-78.28-42.9-150.78-98.82-207.28
			c-65.12-65.81-151.71-102.05-243.81-102.05c-88.42,0-172.36,33.73-236.62,95.01c-33.67-12.39-69.03-18.69-105.14-18.69
			c-82.01,0-159.11,32.27-217.1,90.88c-57.98,58.59-89.91,136.5-89.91,219.36c0,82.86,31.93,160.76,89.91,219.36
			c40.59,41.02,90.54,69.11,144.98,82.3c-19.79,20.17-39.57,33.87-60.32,41.81c-61.08,23.38-124.78,16.35-175.24-19.21
			c12.36-20.14,19.02-44.13,18.81-67.91c-0.21-23.03-6.82-43.22-18.12-55.39c-12.32-13.27-28.48-15.45-45.5-6.14
			c-12.85,7.03-20.17,18.84-21.16,34.16c-1.98,30.61,21.18,69.22,57.85,96.79c-14.19,20.79-41.44,45.97-92.04,53.14
			c-1.64,0.23-2.78,1.75-2.55,3.39c0.21,1.5,1.5,2.58,2.97,2.58c0.14,0,0.28-0.01,0.42-0.03c52.62-7.46,81.14-33.76,96.05-55.55
			c23.25,16.33,50.14,27.25,77.97,31.64c33.66,5.32,68.21,1.33,102.68-11.87c22.47-8.59,43.74-23.61,64.99-45.84
			c21.22,4.62,43.07,7.01,65.3,7.01c58.95,0,116.13-16.92,165.52-48.93c33.39,20.12,69.84,34.27,107.77,42.01
			c13.16,19.63,35.23,31.71,65.67,35.89c5.65,0.78,10.93,1.14,15.88,1.14c36.72,0,54.48-20.02,63.06-38.58
			c35.71-8.09,69.77-21.88,101.09-40.91c1.14,0.92,2.24,1.78,3.31,2.61c12.27,9.48,24.82,14.25,36.9,14.25
			c9.67,0,19.04-3.05,27.76-9.18c26.51-18.65,39.31-61.14,29-95.41c45.78-60.41,70.59-133.92,70.59-211.29
			c0-11.12-0.53-22.15-1.54-33.08c20.24-0.77,40.88,2.23,61.45,8.96c-20.17,27.3-29.36,61.71-25.91,97.4
			c3.16,32.72,17.01,64.55,37.04,85.15c26.1,26.83,57.92,30.75,85.14,10.47c24.65-18.38,35.3-43.62,30.81-73
			c-7.5-49.06-56.46-100.19-117.16-122.9c10.22-12.14,22.91-22.74,37.77-31.56c41.86-24.85,91.39-25.61,136.53-2.25
			c-30.05,28.21-25.16,71.98-4.06,101.71c16.16,22.79,38.06,31.48,54.49,21.63c15.35-9.2,23.3-22.95,22.98-39.76
			c-0.53-28.79-26.16-63.07-62.81-84.58c1.36-1,2.79-1.98,4.26-2.92c38.9-24.79,69.54-9.32,105.02,8.59
			c41.2,20.8,87.89,44.37,158.76,11.55C1621.23,495.73,1621.89,493.95,1621.19,492.44z M97.88,899.9
			c-34.39-26.03-56.94-63.23-55.12-91.35c0.85-13.16,7.09-23.29,18.05-29.28c6.46-3.53,12.2-4.94,17.24-4.94
			c9.33,0,16.27,4.82,20.99,9.9C119.14,805.89,123.29,858.14,97.88,899.9z M752.18,198.64c173.85,0,317.51,133.04,336.6,303.67
			c-9.21,0.68-18.37,2.16-27.3,4.41c-8.16-75.99-43.43-146.19-99.61-198c-57.42-52.96-131.89-82.12-209.69-82.12
			c-75.15,0-147.71,27.44-204.31,77.27c-7.95,7-15.71,14.57-23.06,22.51c-1.69,1.83-3.35,3.67-4.99,5.53
			c-50.87,57.65-78.8,131.61-78.8,209.11c0,3.16,0.04,6.31,0.13,9.45c0.49,17.12,2.32,33.97,5.46,50.49
			c0.32,1.66,0.64,3.32,0.99,4.98c1.2,5.79,2.57,11.53,4.09,17.23c0.09,0.32,0.17,0.65,0.26,0.97c0.85,3.15,1.76,6.29,2.71,9.41
			c5.32,17.42,12.17,34.41,20.56,50.9c0,0,0,0,0,0.01c0.03,0.06,0.06,0.13,0.09,0.19c21.46,42.16,52.39,79.16,89.93,107.74
			c3.73,2.84,7.51,5.59,11.37,8.26c8.84,6.11,18.04,11.79,27.34,16.89c21.73,11.94,44.96,21.24,69.04,27.63
			c25.74,6.82,52.38,10.28,79.2,10.28c26.81,0,53.39-3.45,79.07-10.26c-1.11,11.42-3.52,21.62-7.18,30.44
			c-23.18,5.08-47.22,7.78-71.88,7.78c-61.76,0-122.18-16.95-174.75-49.02c-9.16-5.56-18.25-11.72-27.01-18.3c0,0,0,0,0,0
			c-37.26-27.97-67.94-62.65-91.2-103.07c-29.96-51.99-45.8-111.47-45.8-172.01c0-82.26,29.28-161.77,82.46-223.89l0,0
			c7.14-8.33,14.71-16.37,22.48-23.88C581.66,232.24,664.7,198.64,752.18,198.64z M1057.34,541.03
			c0,62.16-18.16,121.88-52.53,173.02c-34.16-44.72-77.39-60.13-109.38-64.93c28.88-55.19,86.78-106.14,148.7-130.54
			c3.95-1.56,8-2.95,12.06-4.17C1056.94,523.2,1057.34,532.14,1057.34,541.03z M831.13,874.03c3.26-9.03,5.37-19.26,6.28-30.52
			c23.89-6.85,46.97-16.64,68.62-29.12c0,0,0,0,0,0c0,0,0.01,0,0.01-0.01c38.71-22.28,72.81-53.35,98.89-90
			c3.41,4.9,6.69,10.1,9.76,15.55c1.97,3.52,3.62,7.22,4.94,11.03C973.11,811.36,907.05,855.64,831.13,874.03z M905.25,807.88
			c-35.13-43.39-39.62-97.58-12.66-153.11c31.39,4.34,74.8,19.21,108.64,64.49C975.98,755.22,942.88,785.78,905.25,807.88z
			 M786.45,673.95c5.03-2.71,10.19-5.22,15.39-7.44c25.8-11.01,55.62-15.39,84.44-12.48c-26.88,56.78-22.04,112.21,13.7,156.89
			c-19.72,11.06-40.61,19.88-62.18,26.24C839.74,788.13,819.89,724.96,786.45,673.95z M889.1,648.3
			c-30.5-3.46-62.24,1.01-89.62,12.69c-5.54,2.37-11.04,5.05-16.39,7.95c-19.53-28.56-42.45-51.59-66.51-66.83
			c0.55-7.59,0.84-15.24,0.84-22.92c0-57.98-15.93-114.53-46.07-163.53c-28.54-46.4-68.66-84.39-116.22-110.12
			c55.01-47.06,124.8-72.94,197.05-72.94c157.06,0,287.07,118.36,303.44,275.72c-4.61,1.35-9.2,2.9-13.69,4.67
			c-31.41,12.38-62.3,31.54-89.35,55.43C925.46,592.36,903.56,619.95,889.1,648.3z M550.3,309.77
			c99.44,52.82,161.12,155.86,161.12,269.43c0,6.5-0.21,12.97-0.61,19.41c-7.73-4.46-15.58-8.13-23.42-10.99
			c0.08-2.81,0.14-5.63,0.14-8.43c0-54.16-15.33-106.71-44.33-151.97c-27.5-42.92-65.89-77.32-111.19-99.71
			C537.9,321.31,544.03,315.36,550.3,309.77z M578.2,794.45c-0.37-0.26-0.75-0.52-1.12-0.79c-0.59-0.42-1.19-0.85-1.78-1.27
			c-0.69-0.5-1.37-0.99-2.05-1.49c-0.59-0.43-1.18-0.87-1.77-1.3c-0.68-0.5-1.35-1.01-2.02-1.52c-0.59-0.44-1.17-0.89-1.75-1.34
			c-0.67-0.51-1.33-1.03-2-1.55c-0.58-0.45-1.16-0.91-1.73-1.36c-0.66-0.52-1.32-1.05-1.97-1.58c-0.57-0.46-1.14-0.92-1.71-1.39
			c-0.65-0.53-1.3-1.07-1.94-1.61c-0.57-0.47-1.14-0.95-1.7-1.42c-0.64-0.54-1.27-1.08-1.91-1.63c-0.56-0.48-1.12-0.96-1.68-1.45
			c-0.63-0.55-1.26-1.11-1.89-1.66c-0.55-0.49-1.1-0.98-1.65-1.47c-0.62-0.56-1.24-1.12-1.86-1.69c-0.55-0.5-1.09-1-1.63-1.5
			c-0.61-0.57-1.22-1.14-1.83-1.72c-0.54-0.51-1.08-1.01-1.61-1.52c-0.6-0.58-1.2-1.16-1.8-1.74c-0.53-0.52-1.07-1.03-1.59-1.56
			c-0.59-0.58-1.18-1.17-1.76-1.76c-0.53-0.53-1.05-1.06-1.58-1.59c-0.58-0.59-1.16-1.19-1.74-1.79c-0.52-0.53-1.03-1.07-1.55-1.6
			c-0.57-0.6-1.14-1.21-1.71-1.82c-0.51-0.54-1.02-1.08-1.52-1.63c-0.57-0.61-1.12-1.23-1.68-1.84c-0.5-0.55-1-1.1-1.5-1.65
			c-0.55-0.62-1.1-1.24-1.65-1.86c-0.49-0.56-0.99-1.12-1.48-1.68c-0.55-0.63-1.09-1.26-1.63-1.89c-0.48-0.56-0.97-1.13-1.45-1.7
			c-0.54-0.64-1.07-1.28-1.6-1.92c-0.48-0.57-0.95-1.14-1.42-1.72c-0.52-0.64-1.04-1.29-1.56-1.93c-0.47-0.58-0.94-1.16-1.41-1.75
			c-0.51-0.65-1.02-1.3-1.53-1.95c-0.46-0.59-0.92-1.18-1.38-1.77c-0.51-0.66-1.01-1.32-1.51-1.99c-0.45-0.59-0.9-1.19-1.35-1.78
			c-0.5-0.67-0.99-1.35-1.49-2.02c-0.44-0.59-0.87-1.19-1.31-1.79c-0.49-0.68-0.98-1.37-1.46-2.06c-0.43-0.6-0.86-1.2-1.28-1.8
			c-0.48-0.69-0.95-1.38-1.42-2.07c-0.42-0.61-0.84-1.22-1.26-1.83c-0.47-0.69-0.93-1.4-1.39-2.09c-0.41-0.61-0.82-1.23-1.22-1.84
			c-0.46-0.71-0.92-1.43-1.38-2.14c-0.39-0.61-0.79-1.22-1.18-1.84c-0.46-0.72-0.9-1.45-1.35-2.17c-0.38-0.62-0.77-1.23-1.15-1.85
			c-0.45-0.73-0.89-1.47-1.33-2.21c-0.37-0.62-0.74-1.23-1.11-1.85c-0.45-0.77-0.9-1.55-1.35-2.32c-0.34-0.59-0.69-1.18-1.03-1.77
			c-0.47-0.82-0.92-1.64-1.38-2.46c-0.31-0.56-0.63-1.11-0.94-1.67c-0.49-0.9-0.97-1.8-1.46-2.7c-0.26-0.49-0.53-0.98-0.79-1.47
			c-0.49-0.92-0.96-1.84-1.44-2.76c41.63-57.11,96.26-112.59,185.23-95.47c4.79,0.92,9.65,2.2,14.49,3.77
			C677.64,671.4,640.22,745.01,578.2,794.45z M447.1,533.72c0.02-0.82,0.06-1.64,0.09-2.47c0.05-1.61,0.09-3.22,0.17-4.82
			c0.05-0.98,0.11-1.95,0.17-2.93c0.08-1.45,0.15-2.89,0.25-4.33c0.07-1.05,0.17-2.09,0.25-3.14c0.11-1.37,0.21-2.73,0.33-4.09
			c0.1-1.08,0.22-2.15,0.34-3.22c0.14-1.33,0.26-2.66,0.42-3.98c0.13-1.1,0.28-2.2,0.42-3.31c0.16-1.29,0.32-2.57,0.5-3.86
			c0.16-1.13,0.34-2.25,0.51-3.38c0.19-1.25,0.37-2.5,0.57-3.75c0.19-1.14,0.4-2.27,0.59-3.41c0.17-0.98,0.34-1.95,0.52-2.93
			c0.05-0.25,0.09-0.5,0.13-0.75c0.21-1.14,0.45-2.28,0.68-3.42c0.24-1.21,0.47-2.42,0.73-3.63c0.24-1.14,0.51-2.28,0.76-3.42
			c0.27-1.2,0.52-2.4,0.81-3.59c0.27-1.14,0.56-2.28,0.84-3.41c0.29-1.18,0.58-2.37,0.88-3.54c0.3-1.14,0.62-2.28,0.93-3.41
			c0.32-1.17,0.63-2.33,0.96-3.5c0.33-1.14,0.67-2.28,1.01-3.42c0.34-1.15,0.67-2.3,1.03-3.44c0.35-1.14,0.73-2.27,1.1-3.41
			c0.37-1.13,0.72-2.27,1.1-3.39c0.38-1.13,0.78-2.26,1.18-3.39c0.39-1.12,0.77-2.24,1.18-3.36c0.41-1.12,0.83-2.24,1.25-3.36
			c0.42-1.11,0.83-2.22,1.26-3.33c0.43-1.12,0.89-2.23,1.33-3.34c0.44-1.1,0.88-2.2,1.33-3.29c0.46-1.11,0.94-2.2,1.41-3.31
			c0.47-1.09,0.93-2.18,1.41-3.26c0.49-1.1,0.99-2.18,1.49-3.27c0.49-1.07,0.98-2.15,1.48-3.22c0.51-1.09,1.04-2.17,1.57-3.25
			c0.51-1.06,1.02-2.13,1.55-3.18c0.54-1.08,1.09-2.14,1.64-3.22c0.54-1.05,1.07-2.1,1.62-3.14c0.56-1.06,1.14-2.12,1.72-3.17
			c0.57-1.04,1.13-2.08,1.7-3.12c0.59-1.05,1.19-2.09,1.79-3.13c0.59-1.03,1.18-2.06,1.78-3.08c0.61-1.04,1.24-2.06,1.86-3.09
			c0.57-0.95,1.15-1.9,1.73-2.84c0.04-0.07,0.08-0.14,0.12-0.2c0.63-1.02,1.28-2.03,1.93-3.05c0.64-1,1.28-2.01,1.93-3.01
			c0.66-1,1.33-2,2-3c0.67-0.99,1.33-1.99,2.01-2.97c0.68-0.99,1.37-1.96,2.06-2.94c0.69-0.98,1.38-1.97,2.09-2.94
			c0.7-0.97,1.42-1.93,2.13-2.89c0.72-0.97,1.43-1.94,2.16-2.9c0.72-0.95,1.46-1.89,2.19-2.84c0.74-0.96,1.49-1.92,2.24-2.87
			c0.74-0.93,1.5-1.86,2.26-2.78c0.11-0.13,0.22-0.27,0.33-0.4c0.66-0.81,1.32-1.62,1.99-2.43c0.76-0.91,1.54-1.82,2.31-2.72
			c0.8-0.93,1.6-1.87,2.41-2.79c0.78-0.89,1.58-1.77,2.37-2.66c0.58-0.65,1.16-1.29,1.74-1.93
			c93.51,45.44,153.79,142.18,153.79,247.1c0,2.13-0.03,4.28-0.08,6.42c-4.54-1.41-9.09-2.56-13.58-3.43
			c-40.65-7.82-76.93-1.74-110.9,18.59c-26.61,15.92-51.64,40.38-78.49,76.76c-5.75-11.74-10.72-23.74-14.9-35.96
			c-4.12-12.05-7.49-24.31-10.08-36.77c-0.71-3.44-1.36-6.91-1.96-10.38c-1.97-11.48-3.31-23.11-3.98-34.88
			c-0.35-6.13-0.53-12.31-0.53-18.52C447.02,538.59,447.04,536.15,447.1,533.72z M687.12,593.92c7.77,2.95,15.54,6.78,23.2,11.38
			c-6.74,79.79-44.25,153.67-105.28,205.99c-7.35-4.1-14.61-8.56-21.67-13.31C645.42,747.84,683.02,673.89,687.12,593.92z
			 M716.02,608.88c22.29,14.71,43.53,36.36,61.81,63c-62.56,36.34-108.69,108.08-107.26,166.43c-20.8-5.83-40.92-13.87-59.93-23.95
			C671.1,761.78,708.52,688.31,716.02,608.88z M676.64,839.93c-2.42-56.73,42.92-127.42,104.56-163.06
			c33.4,50.79,53.04,113.79,50.51,162c-25.8,7.03-52.54,10.6-79.53,10.6C726.62,849.47,701.21,846.25,676.64,839.93z M139.3,579.2
			c0-151.09,121.62-274.01,271.11-274.01c26.57,0,52.78,3.87,77.97,11.51c-52.25,62.69-80.97,142.16-80.97,224.33
			c0,60.97,15.8,120.88,45.69,173.4c-9.88,15.21-19.65,31.05-29.1,46.38c-18.75,30.43-38.13,61.87-58.67,88.62
			C234.25,827.29,139.3,713.94,139.3,579.2z M429.12,763.96c8.91-14.46,18.09-29.35,27.38-43.73
			c22.59,38.03,51.71,70.95,86.72,97.93c-40.35,22.95-86.17,35.06-132.8,35.06c-12.83,0-25.7-0.92-38.34-2.73
			C392.06,824.08,410.88,793.55,429.12,763.96z M109.41,579.2c0-167.76,135.03-304.24,301.01-304.24
			c34.44,0,68.18,5.84,100.37,17.34c-6.25,6.21-12.34,12.72-18.17,19.44c-26.52-8.32-54.16-12.55-82.21-12.55
			c-74.03,0-143.62,29.13-195.96,82.02c-52.33,52.88-81.15,123.2-81.15,197.99c0,66.96,23.76,131.77,66.91,182.47
			c42.69,50.17,101.62,83.55,165.92,93.99c0.01,0,0.01,0,0.02,0c14.54,2.36,29.44,3.56,44.27,3.56c48.53,0,96.2-12.84,138-37.14
			c7.13,5.29,14.45,10.3,21.84,14.94c-47.86,30.37-103.01,46.41-159.84,46.41C244.44,883.43,109.41,746.96,109.41,579.2z
			 M750.19,912.46c-25.93-3.56-45.32-13.07-57.8-28.29c19.64,3.48,39.65,5.26,59.79,5.26c23.31,0,46.27-2.33,68.61-6.87
			C807.69,906.71,783.41,917.03,750.19,912.46z M993.91,842.82c-17.28,12.15-37.71,10.41-57.54-4.91c-0.51-0.4-1.04-0.82-1.57-1.23
			c21.92-13.88,42.44-30.36,61.18-49.3c9.19-9.29,17.77-19.02,25.78-29.13C1029.21,789.41,1017.4,826.3,993.91,842.82z
			 M1023.9,745.31c-1.16-2.84-2.48-5.63-3.98-8.31c-3.55-6.29-7.36-12.26-11.33-17.83c35.82-52.52,54.75-114.06,54.75-178.14
			c0-9.44-0.44-18.93-1.27-28.26c8.94-2.31,18.1-3.82,27.33-4.49c1.02,10.78,1.56,21.7,1.56,32.75
			C1090.96,617.53,1066.01,688.24,1023.9,745.31z M1278.01,637.83c4.14,27.04-5.71,50.31-28.46,67.28
			c-24.94,18.58-53.1,15-77.25-9.84c-39.24-40.35-52.11-120.38-9.47-176.31C1222.46,540.6,1270.74,590.31,1278.01,637.83z
			 M1408.5,563.9c0.27,14.54-6.67,26.48-20.07,34.51c-15.69,9.4-34.66-3.25-46.52-19.96c-19.89-28.04-24.42-69.41,4.76-95.21
			C1382.67,503.66,1407.99,536.6,1408.5,563.9z"/>
	</g>
</g>
</svg>
